<?xml version="1.0" standalone="no"?>
<!DOCTYPE svg PUBLIC "-//W3C//DTD SVG 20010904//EN"
 "http://www.w3.org/TR/2001/REC-SVG-20010904/DTD/svg10.dtd">
<svg version="1.0" xmlns="http://www.w3.org/2000/svg"
 width="820.000000pt" height="820.000000pt" viewBox="0 0 820.000000 820.000000"
 preserveAspectRatio="xMidYMid meet">
<metadata>
Created by potrace 1.11, written by Peter Selinger 2001-2013
</metadata>
<g transform="translate(0.000000,820.000000) scale(0.100000,-0.100000)"
fill="#000000" stroke="none">
<path d="M4138 8195 c-2 -2 -52 -6 -113 -9 -143 -9 -219 -16 -370 -36 -44 -6
-93 -14 -110 -17 -16 -3 -41 -6 -55 -8 -30 -4 -76 -12 -145 -25 -27 -6 -60
-12 -73 -15 -13 -2 -31 -6 -40 -9 -9 -3 -30 -8 -47 -10 -41 -7 -225 -55 -234
-60 -4 -3 -18 -7 -32 -10 -13 -3 -55 -14 -94 -26 -38 -12 -74 -23 -80 -24 -5
-2 -17 -6 -25 -9 -8 -4 -51 -18 -95 -33 -44 -15 -84 -31 -90 -35 -5 -5 -15 -9
-23 -9 -11 0 -37 -10 -127 -50 -11 -5 -54 -23 -95 -41 -41 -17 -78 -37 -82
-43 -4 -6 -8 -7 -8 -3 0 5 -17 -1 -37 -12 -107 -56 -303 -166 -343 -192 -25
-16 -54 -33 -65 -39 -25 -12 -220 -149 -249 -175 -6 -5 -29 -23 -51 -40 -41
-30 -53 -41 -160 -135 -83 -74 -230 -223 -290 -295 -27 -33 -58 -67 -67 -76
-10 -9 -18 -21 -18 -28 0 -6 -3 -11 -7 -11 -9 0 -74 -87 -154 -205 -30 -44
-57 -81 -61 -83 -5 -2 -8 -8 -8 -14 0 -6 -15 -36 -34 -67 -71 -117 -212 -406
-219 -450 -2 -9 -8 -25 -14 -36 -10 -19 -71 -199 -77 -227 -2 -7 -6 -20 -9
-28 -4 -8 -14 -44 -22 -80 -9 -36 -18 -74 -21 -85 -5 -19 -29 -141 -39 -194
-3 -14 -7 -36 -9 -48 -3 -12 -8 -53 -11 -90 -4 -37 -9 -71 -11 -74 -11 -19
-19 -247 -19 -529 1 -404 13 -678 40 -870 8 -57 11 -82 19 -151 4 -31 9 -67
11 -80 3 -13 8 -37 11 -54 3 -16 12 -57 21 -90 8 -33 17 -71 19 -85 5 -26 21
-83 31 -110 3 -8 7 -19 8 -25 7 -28 56 -149 88 -216 120 -252 329 -465 567
-576 82 -39 119 -55 130 -57 3 -1 10 -4 16 -8 11 -7 133 -44 199 -59 79 -19
151 -33 235 -44 14 -2 25 -4 25 -5 0 -6 196 -20 370 -26 220 -7 357 -14 390
-18 17 -2 57 -6 90 -10 33 -4 114 -18 180 -31 66 -13 131 -26 145 -29 14 -3
66 -17 115 -31 50 -15 98 -29 107 -30 9 -2 25 -8 35 -13 10 -6 20 -10 23 -10
32 -3 275 -98 440 -174 76 -35 263 -129 317 -160 21 -11 56 -31 78 -43 22 -12
56 -31 75 -43 19 -12 42 -25 50 -29 8 -3 34 -19 57 -35 23 -15 44 -28 47 -28
3 0 24 -13 48 -28 24 -16 79 -52 123 -80 44 -28 87 -56 95 -62 8 -6 78 -54
155 -107 77 -53 142 -100 143 -104 2 -5 8 -9 12 -9 5 0 33 -18 62 -39 86 -64
311 -229 337 -248 13 -10 30 -24 37 -30 7 -7 17 -13 22 -13 6 0 12 -3 14 -7 5
-12 370 -279 488 -358 25 -16 47 -33 50 -36 3 -3 12 -9 20 -13 8 -3 42 -24 75
-46 112 -73 310 -166 370 -175 6 -1 12 -3 15 -4 3 -2 24 -5 47 -7 45 -4 46 -2
57 81 3 17 13 82 24 145 11 63 23 134 27 157 3 23 8 57 11 75 3 18 7 47 8 64
2 17 6 39 9 50 3 10 9 46 13 79 3 33 8 63 10 66 1 3 6 28 9 55 3 27 8 60 11
74 2 14 6 34 8 45 2 11 7 47 11 80 3 32 9 63 11 67 3 4 7 33 9 65 2 32 5 58 5
58 2 0 9 37 14 80 3 22 8 56 11 75 13 77 16 97 20 145 4 46 10 91 20 155 5 32
18 149 30 263 3 26 7 68 10 95 9 88 14 147 20 225 2 43 7 83 10 88 4 5 1 9 -5
9 -6 0 -8 5 -4 12 11 18 5 71 -8 79 -7 4 -99 6 -205 5 -197 -3 -275 5 -327 34
-66 36 -75 68 -80 302 -4 144 7 201 42 219 26 15 272 20 272 6 0 -5 5 -5 12
-1 6 4 37 6 67 5 31 -2 130 -4 221 -6 91 -1 174 -5 185 -8 30 -10 41 -51 39
-152 -1 -85 -4 -128 -21 -305 -3 -41 -6 -201 -6 -355 0 -314 6 -384 34 -437 7
-13 12 -24 11 -25 -12 -18 44 -77 86 -91 24 -8 32 -8 33 1 4 48 7 95 13 182 4
55 9 127 12 160 2 33 7 89 9 125 9 146 17 252 30 443 10 136 15 212 20 292 9
127 15 215 20 285 3 36 8 101 10 145 2 44 6 105 9 135 4 49 12 166 21 305 3
45 6 89 20 280 6 82 16 229 20 295 3 30 7 96 11 145 8 118 11 159 19 284 3 58
8 108 11 112 2 4 1 14 -2 23 -8 22 -53 13 -129 -24 -77 -38 -193 -140 -305
-271 -51 -59 -114 -130 -147 -166 -13 -13 -23 -26 -23 -28 0 -2 -49 -53 -109
-113 -216 -215 -422 -343 -638 -393 -74 -17 -126 -22 -363 -33 -261 -13 -550
-98 -667 -196 -7 -5 -17 -10 -22 -10 -6 0 -43 -33 -83 -72 -69 -68 -122 -147
-135 -200 -10 -42 -9 -143 2 -157 5 -8 8 -15 6 -15 -10 -3 8 -101 52 -286 20
-79 33 -148 31 -152 -3 -4 -1 -8 4 -8 5 0 9 -6 9 -12 0 -7 8 -48 17 -90 9 -42
19 -93 22 -114 3 -20 8 -46 10 -58 22 -110 27 -190 28 -411 0 -200 -8 -410
-20 -540 -3 -27 -5 -60 -5 -73 1 -33 -16 -27 -24 10 -4 18 -11 39 -16 48 -4 8
-22 44 -39 80 -17 36 -35 72 -40 80 -5 8 -30 51 -56 95 -46 77 -152 228 -204
290 -61 72 -231 235 -295 283 -38 28 -79 59 -90 68 -57 44 -320 184 -348 184
-2 0 -22 8 -43 17 -22 9 -43 18 -49 19 -5 2 -35 10 -65 19 -30 8 -68 17 -85
20 -16 3 -38 8 -47 11 -34 10 -76 17 -188 30 -30 4 -188 8 -350 9 -267 2 -391
8 -413 22 -4 2 -22 6 -40 8 -138 16 -343 95 -490 188 -237 151 -407 375 -503
664 -20 58 -37 114 -40 124 -11 51 -15 68 -24 119 -30 160 -33 535 -5 640 2 8
6 35 10 60 5 45 12 81 15 90 1 3 2 8 2 11 -1 3 8 39 19 80 11 41 22 83 24 93
7 29 56 177 70 211 7 17 23 55 35 85 73 178 187 377 309 540 78 105 93 121
211 241 135 135 181 174 315 263 146 98 168 109 420 221 72 32 185 73 185 67
0 -4 4 -2 8 3 8 12 309 111 365 121 20 3 40 10 43 15 3 5 9 7 13 4 5 -2 23 0
42 6 40 12 199 47 249 55 19 3 49 8 65 11 17 3 41 6 55 8 14 1 43 5 65 9 114
16 190 20 405 20 214 0 299 -4 415 -19 110 -14 248 -40 325 -60 36 -9 76 -19
90 -21 14 -3 32 -7 40 -11 8 -3 26 -8 39 -10 13 -2 37 -11 53 -19 15 -8 28
-12 28 -10 0 7 123 -37 269 -95 174 -70 389 -176 544 -270 26 -16 52 -29 57
-29 6 0 10 -4 10 -8 0 -5 12 -14 27 -21 23 -11 278 -179 308 -203 33 -27 237
-179 275 -205 73 -50 180 -70 231 -43 9 5 48 47 85 92 38 46 73 88 79 94 12
13 114 129 173 198 24 28 58 67 76 86 17 19 77 87 131 150 55 63 104 120 110
126 5 6 33 37 60 69 28 32 57 66 65 75 8 9 42 47 75 85 32 39 66 77 75 86 8 9
31 35 50 59 19 23 44 52 55 65 11 13 30 35 43 50 l22 27 -106 79 c-58 43 -108
79 -110 79 -2 0 -14 9 -26 20 -37 31 -227 160 -237 160 -5 0 -11 4 -13 8 -1 5
-48 36 -103 70 -55 34 -105 66 -112 72 -7 5 -15 10 -18 10 -3 0 -29 15 -58 33
-29 18 -70 41 -92 52 -22 11 -42 22 -45 25 -20 21 -543 278 -578 284 -7 1 -18
8 -24 14 -7 7 -16 12 -21 12 -4 0 -70 24 -145 54 -274 109 -616 214 -852 262
-125 25 -175 35 -235 45 -76 12 -86 14 -160 24 -27 4 -61 8 -75 10 -14 2 -59
7 -100 11 -41 4 -88 9 -105 11 -36 5 -642 13 -647 8z"/>
<path d="M3753 6262 l-23 -3 -2 -462 -3 -462 -143 2 c-79 1 -146 4 -149 7 -3
2 -16 1 -29 -4 -13 -5 -24 -6 -24 -2 0 15 -476 3 -585 -14 -22 -4 -47 -8 -55
-9 -110 -16 -251 -60 -341 -106 -124 -65 -208 -158 -248 -277 -34 -101 -39
-194 -16 -307 17 -81 97 -206 167 -260 21 -16 45 -36 53 -42 7 -7 25 -17 39
-23 30 -11 34 -25 8 -27 -69 -5 -227 -64 -269 -99 -12 -11 -30 -26 -40 -35
-80 -70 -115 -178 -115 -354 0 -125 31 -215 106 -310 95 -120 270 -228 441
-271 143 -37 146 -37 896 -39 l736 -2 1 96 c2 98 2 123 -1 244 -1 37 2 67 6
67 5 0 5 5 1 12 -11 17 -11 228 0 228 5 0 4 6 -1 13 -6 9 -10 210 -4 260 1 4
296 7 656 7 l655 0 0 178 0 178 -657 0 -656 0 -1 107 c-1 59 2 107 6 107 4 0
5 7 2 15 -10 24 -10 175 -1 175 4 0 5 5 1 12 -11 17 -11 228 -1 228 5 0 5 6 1
12 -11 17 -11 358 -1 358 5 0 5 5 1 11 -10 16 -11 149 -1 149 5 0 5 5 1 11
-10 16 -11 149 -1 149 5 0 5 5 1 11 -9 15 -11 149 -3 149 4 0 4 15 0 33 -8 43
-7 119 2 135 5 6 5 12 0 12 -4 0 -8 32 -7 70 1 58 -2 70 -15 71 -78 2 -371 3
-388 1z m-592 -1266 c17 -1 32 1 35 6 3 5 10 5 16 2 6 -4 68 -8 137 -10 69 -2
162 -6 206 -8 44 -3 101 -5 128 -5 l47 -1 -2 -267 -3 -268 -45 -2 c-25 -1
-106 -5 -180 -8 -143 -8 -422 -8 -480 -1 -94 11 -138 18 -175 28 -22 5 -47 11
-55 13 -8 2 -42 13 -75 26 -73 27 -157 107 -170 159 -22 99 4 170 87 235 32
26 166 73 228 81 98 12 162 18 203 18 26 0 47 4 47 9 0 4 5 5 11 2 6 -4 24 -8
40 -9z m259 -891 c69 -4 161 -8 205 -10 44 -2 86 -3 93 -4 9 -1 12 -65 12
-286 0 -157 -3 -285 -7 -286 -5 -1 -30 -2 -58 -4 -27 -1 -106 -6 -175 -10
-147 -9 -511 -11 -590 -3 -338 35 -514 152 -505 336 2 31 10 71 19 89 52 99
220 161 481 179 50 4 91 7 92 8 5 4 317 -2 433 -9z"/>
</g>
</svg>
