<?xml version="1.0" encoding="UTF-8" standalone="no"?>
<!-- Creator: CorelDRAW 2017 -->

<svg
   xmlns:dc="http://purl.org/dc/elements/1.1/"
   xmlns:cc="http://creativecommons.org/ns#"
   xmlns:rdf="http://www.w3.org/1999/02/22-rdf-syntax-ns#"
   xmlns:svg="http://www.w3.org/2000/svg"
   xmlns="http://www.w3.org/2000/svg"
   xmlns:sodipodi="http://sodipodi.sourceforge.net/DTD/sodipodi-0.dtd"
   xmlns:inkscape="http://www.inkscape.org/namespaces/inkscape"
   xml:space="preserve"
   width="54.999969mm"
   height="57.830524mm"
   version="1.1"
   style="clip-rule:evenodd;fill-rule:evenodd;image-rendering:optimizeQuality;shape-rendering:geometricPrecision;text-rendering:geometricPrecision"
   viewBox="0 0 5499.9971 5783.0525"
   id="svg2"
   inkscape:version="0.91 r13725"
   sodipodi:docname="brainlegion_head.svg"><metadata
     id="metadata35"><rdf:RDF><cc:Work
         rdf:about=""><dc:format>image/svg+xml</dc:format><dc:type
           rdf:resource="http://purl.org/dc/dcmitype/StillImage" /><dc:title></dc:title></cc:Work></rdf:RDF></metadata><sodipodi:namedview
     pagecolor="#ffffff"
     bordercolor="#666666"
     borderopacity="1"
     objecttolerance="10"
     gridtolerance="10"
     guidetolerance="10"
     inkscape:pageopacity="0"
     inkscape:pageshadow="2"
     inkscape:window-width="1920"
     inkscape:window-height="1017"
     id="namedview33"
     showgrid="false"
     fit-margin-top="0"
     fit-margin-left="0"
     fit-margin-right="0"
     fit-margin-bottom="0"
     inkscape:zoom="1.59649"
     inkscape:cx="176.35956"
     inkscape:cy="23.088351"
     inkscape:window-x="0"
     inkscape:window-y="30"
     inkscape:window-maximized="1"
     inkscape:current-layer="Слой_x0020_1" /><defs
     id="defs4"><style
       type="text/css"
       id="style6"><![CDATA[
    .fil0 {fill:none}
    .fil2 {fill:#2B2A29;fill-rule:nonzero}
    .fil1 {fill:url(#id0)}
   ]]></style><linearGradient
       id="id0"
       gradientUnits="userSpaceOnUse"
       x1="13608.63"
       y1="9882.4102"
       x2="8145.3101"
       y2="10552.86"><stop
         offset="0"
         style="stop-opacity:1; stop-color:#594B97"
         id="stop9" /><stop
         offset="1"
         style="stop-opacity:1; stop-color:#201550"
         id="stop11" /></linearGradient></defs><g
     id="Слой_x0020_1"
     transform="translate(-8126.97,-7326.105)"><metadata
       id="CorelCorpID_0Corel-Layer" /><rect
       class="fil0"
       x="7428.3301"
       y="5717.6299"
       width="16000"
       height="9000"
       id="rect15"
       style="fill:none" /><path
       class="fil1"
       d="m 9796.4,8707.85 c 1087.65,-482.9 1978.87,-294.62 2877.56,418.55 95.76,75.99 192.52,44.64 192.52,30.69 0,-12.65 774.29,-882.49 760.3,-882.49 -25.08,0 -1097.31,-952.85 -2528.22,-948.48 -1615.7,0 -2971.59,922.42 -2971.59,2534.15 0,1208.45 171.72,1802.34 1350.19,1802.34 1336.69,0 2472.01,1446.42 2951.09,1446.42 -0.57,14.95 220.18,-1292.08 220.18,-1671.75 0,-67.81 -436.48,67.94 -436.48,-122.37 0,-94.98 -37.64,-296.65 47.22,-296.65 102.89,0 404.62,8.45 505.76,8.45 71.57,0 9.8,283.86 9.8,521.8 0,218.4 -10.1,448.81 119.86,448.81 l 158.05,-2279.09 c -287.05,0 -493.48,713.35 -1100.65,730.81 -528.32,-3.41 -754.36,237.27 -754.36,387.71 0,193.1 137.08,484.6 137.08,846.24 0,207.62 -26.56,565.33 -26.56,482.4 -18.39,-68.66 -364.49,-979.18 -1363.45,-912.7 C 8404,11314.7 8646.25,9218.5 9796.4,8707.85 Z m -417.93,1739.47 c 0,66.63 17.72,126.52 53.16,179.67 35.44,53.16 81.5,98.52 138.2,136.08 56.71,37.56 120.85,66.27 192.42,86.11 71.59,19.85 143.53,29.77 215.82,29.77 l 939.8,0 0,-654.87 924.91,0 -0.01,-250.9 -924.9,0 0,-625.12 0,-654.89 -301.93,0 0,654.89 c -356.32,0 -1135.41,-104.77 -1135.41,414.62 0,149.89 89.93,265.24 221.12,329.56 -62.36,8.5 -114.45,22.33 -156.28,41.46 -41.8,19.14 -75.11,43.24 -99.92,72.3 -24.81,29.05 -42.17,63.43 -52.1,103.12 -9.92,39.68 -14.88,85.76 -14.88,138.2 z m 395.49,-669.76 c 0,-271.85 666.99,-178.6 841.98,-178.6 l 0,374.22 c -130.43,0 -841.98,93.8 -841.98,-195.62 z m -102.07,625.11 c 0,-278.83 755.03,-178.6 944.05,-178.6 l 0,403.98 c -183.15,0 -944.05,114.32 -944.05,-225.38 z"
       id="path17"
       inkscape:connector-curvature="0"
       style="fill:url(#id0)" /></g></svg>