<?xml version="1.0" encoding="UTF-8" standalone="no"?>
<!-- Creator: CorelDRAW 2017 -->

<svg
   xmlns:dc="http://purl.org/dc/elements/1.1/"
   xmlns:cc="http://creativecommons.org/ns#"
   xmlns:rdf="http://www.w3.org/1999/02/22-rdf-syntax-ns#"
   xmlns:svg="http://www.w3.org/2000/svg"
   xmlns="http://www.w3.org/2000/svg"
   xmlns:sodipodi="http://sodipodi.sourceforge.net/DTD/sodipodi-0.dtd"
   xmlns:inkscape="http://www.inkscape.org/namespaces/inkscape"
   xml:space="preserve"
   width="190.38361mm"
   height="57.830517mm"
   version="1.1"
   style="clip-rule:evenodd;fill-rule:evenodd;image-rendering:optimizeQuality;shape-rendering:geometricPrecision;text-rendering:geometricPrecision"
   viewBox="0 0 19038.361 5783.0518"
   id="svg2"
   inkscape:version="0.91 r13725"
   sodipodi:docname="brainlegion_main.svg"><metadata
     id="metadata35"><rdf:RDF><cc:Work
         rdf:about=""><dc:format>image/svg+xml</dc:format><dc:type
           rdf:resource="http://purl.org/dc/dcmitype/StillImage" /><dc:title></dc:title></cc:Work></rdf:RDF></metadata><sodipodi:namedview
     pagecolor="#ffffff"
     bordercolor="#666666"
     borderopacity="1"
     objecttolerance="10"
     gridtolerance="10"
     guidetolerance="10"
     inkscape:pageopacity="0"
     inkscape:pageshadow="2"
     inkscape:window-width="1920"
     inkscape:window-height="1017"
     id="namedview33"
     showgrid="false"
     fit-margin-top="0"
     fit-margin-left="0"
     fit-margin-right="0"
     fit-margin-bottom="0"
     inkscape:zoom="1.59649"
     inkscape:cx="178.69368"
     inkscape:cy="89.698344"
     inkscape:window-x="0"
     inkscape:window-y="30"
     inkscape:window-maximized="1"
     inkscape:current-layer="Слой_x0020_1" /><defs
     id="defs4"><style
       type="text/css"
       id="style6"><![CDATA[
    .fil0 {fill:none}
    .fil2 {fill:#2B2A29;fill-rule:nonzero}
    .fil1 {fill:url(#id0)}
   ]]></style><linearGradient
       id="id0"
       gradientUnits="userSpaceOnUse"
       x1="13608.63"
       y1="9882.4102"
       x2="8145.3101"
       y2="10552.86"><stop
         offset="0"
         style="stop-opacity:1; stop-color:#594B97"
         id="stop9" /><stop
         offset="1"
         style="stop-opacity:1; stop-color:#201550"
         id="stop11" /></linearGradient><style
       id="style6-7"
       type="text/css"><![CDATA[
    .fil0 {fill:none}
    .fil1 {fill:#2B2A29;fill-rule:nonzero}
    .fil2 {fill:url(#id0)}
   ]]></style></defs><g
     id="Слой_x0020_1"
     transform="translate(-8126.97,-7326.1052)"><metadata
       id="CorelCorpID_0Corel-Layer" /><rect
       class="fil0"
       x="7428.3301"
       y="5717.6299"
       width="16000"
       height="9000"
       id="rect15"
       style="fill:none" /><path
       class="fil1"
       d="m 9796.4,8707.85 c 1087.65,-482.9 1978.87,-294.62 2877.56,418.55 95.76,75.99 192.52,44.64 192.52,30.69 0,-12.65 774.29,-882.49 760.3,-882.49 -25.08,0 -1097.31,-952.85 -2528.22,-948.48 -1615.7,0 -2971.59,922.42 -2971.59,2534.15 0,1208.45 171.72,1802.34 1350.19,1802.34 1336.69,0 2472.01,1446.42 2951.09,1446.42 -0.57,14.95 220.18,-1292.08 220.18,-1671.75 0,-67.81 -436.48,67.94 -436.48,-122.37 0,-94.98 -37.64,-296.65 47.22,-296.65 102.89,0 404.62,8.45 505.76,8.45 71.57,0 9.8,283.86 9.8,521.8 0,218.4 -10.1,448.81 119.86,448.81 l 158.05,-2279.09 c -287.05,0 -493.48,713.35 -1100.65,730.81 -528.32,-3.41 -754.36,237.27 -754.36,387.71 0,193.1 137.08,484.6 137.08,846.24 0,207.62 -26.56,565.33 -26.56,482.4 -18.39,-68.66 -364.49,-979.18 -1363.45,-912.7 C 8404,11314.7 8646.25,9218.5 9796.4,8707.85 Z m -417.93,1739.47 c 0,66.63 17.72,126.52 53.16,179.67 35.44,53.16 81.5,98.52 138.2,136.08 56.71,37.56 120.85,66.27 192.42,86.11 71.59,19.85 143.53,29.77 215.82,29.77 l 939.8,0 0,-654.87 924.91,0 -0.01,-250.9 -924.9,0 0,-625.12 0,-654.89 -301.93,0 0,654.89 c -356.32,0 -1135.41,-104.77 -1135.41,414.62 0,149.89 89.93,265.24 221.12,329.56 -62.36,8.5 -114.45,22.33 -156.28,41.46 -41.8,19.14 -75.11,43.24 -99.92,72.3 -24.81,29.05 -42.17,63.43 -52.1,103.12 -9.92,39.68 -14.88,85.76 -14.88,138.2 z m 395.49,-669.76 c 0,-271.85 666.99,-178.6 841.98,-178.6 l 0,374.22 c -130.43,0 -841.98,93.8 -841.98,-195.62 z m -102.07,625.11 c 0,-278.83 755.03,-178.6 944.05,-178.6 l 0,403.98 c -183.15,0 -944.05,114.32 -944.05,-225.38 z"
       id="path17"
       inkscape:connector-curvature="0"
       style="fill:url(#id0);fill-rule:nonzero" /><g
       style="clip-rule:evenodd;fill-rule:evenodd;image-rendering:optimizeQuality;shape-rendering:geometricPrecision;text-rendering:geometricPrecision"
       id="g3379"
       transform="translate(15235.127,-3018.6655)"><g
         transform="translate(-8126.97,-7326.105)"
         id="Слой_x0020_1-5"><metadata
           id="CorelCorpID_0Corel-Layer-6" /><rect
           style="fill:none"
           id="rect15-2"
           height="9000"
           width="16000"
           y="5717.6299"
           x="7428.3301"
           class="fil0" /><path
           style="clip-rule:evenodd;fill:#2b2a29;fill-rule:nonzero;image-rendering:optimizeQuality;shape-rendering:geometricPrecision;text-rendering:geometricPrecision"
           inkscape:connector-curvature="0"
           id="path19-3"
           d="m 7635.0886,21546.208 c 0,58.37 -15.52,110.84 -46.57,157.4 -31.04,46.56 -71.4,86.31 -121.07,119.21 -49.67,32.91 -105.87,58.06 -168.58,75.44 -62.7,17.39 -125.73,26.08 -189.0499,26.08 l -823.3,0 0,-1341.119 774.86,0 c 79.4799,0 149.3299,9.32 209.5499,27.94 60.24,18.63 110.84,44.4 151.81,77.31 40.98,32.9 71.71,71.4 92.21,115.48 20.49,44.08 30.73,91.58 30.73,142.49 0,59.61 -16.46,114.86 -49.36,165.78 -32.91,50.91 -81.02,91.89 -144.36,122.94 54.65,7.44 100.27,19.549 136.9,36.32 36.65,16.759 65.83,37.869 87.55,63.32 21.74,25.46 36.95,55.579 45.64,90.349 8.69,34.77 13.04,75.13 13.04,121.06 z m -346.46,-586.719 c 0,-49.68 -21.11,-88.18 -63.33,-115.49 -42.21,-27.33 -96.86,-40.98 -163.9199,-40.98 l -510.36,0 0,327.82 510.36,0 c 29.8099,0 58.6799,-5.28 86.6199,-15.83 27.94,-10.56 52.16,-24.22 72.64,-40.98 20.49,-16.77 36.95,-35.39 49.37,-55.88 12.42,-20.48 18.62,-40.04 18.62,-58.66 z m 89.41,547.609 c 0,-52.15 -21.11,-91.27 -63.33,-117.35 -42.22,-26.07 -110.51,-39.12 -204.8899,-39.12 l -558.8,0 0,353.92 558.8,0 c 47.1899,0 87.8499,-6.22 121.9999,-18.64 34.15,-12.42 62.09,-28.25 83.82,-47.5 21.73,-19.23 37.56,-40.34 47.49,-63.32 9.95,-22.97 14.91,-45.64 14.91,-67.99 z m 1980.0099,517.82 c -47.1799,33.53 -101.2,58.98 -162.05,76.37 -60.84,17.38 -129.14,14.9 -204.89,-7.45 -28.56,-8.69 -57.75,-22.04 -87.55,-40.04 -29.8,-18.01 -58.04,-38.5 -84.75,-61.47 -26.7,-22.98 -51.53,-47.5 -74.5,-73.58 -22.97,-26.08 -41.91,-51.54 -56.82,-76.37 -4.96,-7.45 -12.41,-18.94 -22.34,-34.46 -9.94,-15.52 -22.04,-33.52 -36.32,-54.02 -14.29,-20.49 -29.19,-42.84 -44.71,-67.05 -15.53,-24.21 -31.36,-48.12 -47.49,-71.71 -37.26,-55.88 -77.62,-117.35 -121.08,-184.41 l -329.6899,0 0,493.61 -227.25,0 0,-1123.189 732.0299,1.87 c 139.08,0 239.97,26.07 302.68,78.23 62.71,52.15 94.06,131 94.06,236.56 0,50.909 -8.69,94.99 -26.08,132.24 -17.38,37.259 -40.97,68.3 -70.77,93.139 -29.81,24.83 -63.65,44.39 -101.52,58.67 -37.87,14.281 -77.3,23.9 -118.27,28.87 40.97,59.6 78.22,114.25 111.75,163.92 14.9,21.1 29.5,42.52 43.78,64.26 14.27,21.73 27.63,41.91 40.04,60.53 12.42,18.63 23.59,35.08 33.52,49.37 9.95,14.28 17.4,25.14 22.36,32.59 19.87,32.29 39.74,59.29 59.61,81.03 19.86,21.73 40.05,40.66 60.53,56.81 20.49,16.14 42.54,29.18 66.13,39.12 23.6,9.93 50.2901,18.62 80.0899,26.07 18.6202,4.97 44.4001,10.25 77.3001,15.84 32.91,5.59 63.64,7.14 92.2,4.65 z m -597.92,-907.109 c 0,-24.84 -2.79,-45.64 -8.38,-62.41 -5.59,-16.76 -15.83,-30.42 -30.73,-40.97 -14.9,-10.56 -35.08,-18.01 -60.53,-22.35 -25.46,-4.35 -58.05,-6.53 -97.79,-6.53 l -476.8399,0 0,262.64 467.5299,0 c 72.02,0 124.49,-9.321 157.39,-27.94 32.91,-18.62 49.35,-52.78 49.35,-102.44 z m 1329.9505,834.469 -152.7406,-337.14 -508.5001,0 -156.4699,339 -186.2599,-70.78 482.4298,-1080.339 230.9602,0 491.7505,1061.709 -201.17,87.55 z m -407.9304,-894.079 -171.3501,374.389 340.8601,0 -169.51,-374.389 z m 808.3894,866.139 0,-1121.319 225.39,0 0,1121.319 -225.39,0 z m 1439.85,0 -756.239,-838.199 0,838.199 -197.45,0 0,-1121.319 216.069,0 705.95,786.039 0,-786.039 197.44,-1.87 0,1123.189 -165.77,0 z m 1210.74,0 0,-1341.119 264.49,0 0,1121.329 810.258,0 0,219.79 -1074.748,0 z m 1205.14,0 0,-1121.319 1104.557,0 0,182.53 -877.319,0 0,262.64 616.539,0 0,182.539 -616.539,0 0,311.06 892.209,0 0,182.55 -1119.447,0 z m 2438.217,-219.79 c -13.66,17.38 -36.95,39.73 -69.85,67.05 -32.91,27.31 -75.44,53.7 -127.6,79.16 -52.15,25.46 -114.55,47.19 -187.18,65.19 -72.65,18.01 -155.54,27.01 -248.67,27.01 -83.2,0 -164.54,-11.79 -244.01,-35.39 -79.48,-23.59 -150.57,-59.29 -213.28,-107.1 -62.71,-47.81 -113.31,-107.73 -151.8,-179.74 -38.5,-72.03 -57.75,-157.09 -57.75,-255.19 0,-86.919 18.31,-166.71 54.95,-239.349 36.63,-72.64 87.23,-135.05 151.8,-187.2 64.58,-52.15 140.95,-92.51 229.11,-121.07 88.17,-28.56 183.79,-42.84 286.86,-42.84 59.6,0 117.35,5.9 173.23,17.69 55.87,11.8 107.4,26.39 154.59,43.78 47.19,17.38 89.41,36 126.67,55.88 37.24,19.87 67.67,37.87 91.26,54.01 l -94.99,180.669 c -11.18,-11.169 -30.43,-26.069 -57.74,-44.699 -27.33,-18.62 -61.47,-37.25 -102.46,-55.88 -40.97,-18.62 -88.16,-34.76 -141.55,-48.42 -53.4,-13.66 -110.52,-20.49 -171.36,-20.49 -62.1,0 -121.39,8.38 -177.89,25.14 -56.5,16.76 -106.79,41.91 -150.88,75.44 -44.08,33.53 -79.16,75.13 -105.24,124.789 -26.08,49.68 -39.11,107.421 -39.11,173.23 0,74.51 13.35,137.23 40.05,188.13 26.69,50.92 61.77,92.51 105.23,124.8 43.47,32.28 92.51,55.57 147.15,69.85 54.64,14.29 109.9,21.43 165.78,21.43 58.37,0 109.9,-4.35 154.61,-13.05 44.7,-8.69 83.19,-19.24 115.48,-31.66 32.28,-12.42 58.98,-25.14 80.09,-38.19 21.12,-13.03 37.25,-23.9 48.43,-32.59 l 0,-214.21 -355.76,1.861 0,-184.4 571.83,0 0,456.36 z m 229.1,219.79 0,-1121.319 225.39,0 0,1121.319 -225.39,0 z m 1775.12,-568.12 c 0,81.961 -17.07,158.64 -51.22,230.04 -34.15,71.4 -82.27,133.5 -144.36,186.27 -62.09,52.77 -135.98,94.38 -221.66,124.8 -85.68,30.42 -180.06,45.63 -283.11,45.63 -103.07,0 -197.45,-15.21 -283.13,-45.63 -85.68,-30.42 -159.57,-72.03 -221.66,-124.8 -62.09,-52.77 -110.21,-114.87 -144.36,-186.27 -34.14,-71.4 -51.22,-148.079 -51.22,-230.04 0,-81.95 17.08,-158.63 51.22,-230.029 34.15,-71.4 82.27,-133.5 144.36,-186.26 62.09,-52.78 135.98,-94.38 221.66,-124.81 85.68,-30.42 180.06,-45.63 283.13,-45.63 103.05,0 197.43,15.21 283.11,45.63 85.68,30.43 159.57,72.03 221.66,124.81 62.09,52.76 110.21,114.86 144.36,186.26 34.15,71.399 51.22,148.079 51.22,230.029 z m -216.07,0 c 0,-59.6 -11.79,-114.229 -35.39,-163.909 -23.59,-49.661 -56.81,-92.2 -99.66,-127.59 -42.83,-35.4 -93.75,-63.02 -152.73,-82.89 -58.98,-19.87 -124.49,-29.8 -196.5,-29.8 -72.03,0 -137.54,9.93 -196.52,29.8 -58.98,19.87 -109.9,47.49 -152.73,82.89 -42.85,35.39 -76.07,77.929 -99.66,127.59 -23.6,49.68 -35.39,104.309 -35.39,163.909 0,59.61 11.79,114.25 35.39,163.92 23.59,49.67 56.81,92.2 99.66,127.59 42.83,35.39 93.75,63.02 152.73,82.89 58.98,19.87 124.49,29.81 196.52,29.81 72.01,0 137.52,-9.94 196.5,-29.81 58.98,-19.87 109.9,-47.5 152.73,-82.89 42.85,-35.39 76.07,-77.92 99.66,-127.59 23.6,-49.67 35.39,-104.31 35.39,-163.92 z m -482.43,137.84 -130.38,-128.52 130.38,-128.529 128.53,128.529 -128.53,128.52 z m 1801.2,430.28 -756.24,-838.199 0,838.199 -197.45,0 0,-1121.319 216.07,0 705.95,786.039 0,-786.039 197.44,-1.87 0,1123.189 -165.77,0 z"
           class="fil2" /></g></g></g></svg>