<?xml version="1.0" encoding="UTF-8" standalone="no"?>
<!-- Creator: CorelDRAW 2017 -->

<svg
   xmlns:dc="http://purl.org/dc/elements/1.1/"
   xmlns:cc="http://creativecommons.org/ns#"
   xmlns:rdf="http://www.w3.org/1999/02/22-rdf-syntax-ns#"
   xmlns:svg="http://www.w3.org/2000/svg"
   xmlns="http://www.w3.org/2000/svg"
   xmlns:sodipodi="http://sodipodi.sourceforge.net/DTD/sodipodi-0.dtd"
   xmlns:inkscape="http://www.inkscape.org/namespaces/inkscape"
   xml:space="preserve"
   width="142.5609mm"
   height="57.830517mm"
   version="1.1"
   style="clip-rule:evenodd;fill-rule:evenodd;image-rendering:optimizeQuality;shape-rendering:geometricPrecision;text-rendering:geometricPrecision"
   viewBox="0 0 14256.09 5783.0517"
   id="svg2"
   inkscape:version="0.91 r13725"
   sodipodi:docname="brainlegion_factory.svg"><metadata
     id="metadata35"><rdf:RDF><cc:Work
         rdf:about=""><dc:format>image/svg+xml</dc:format><dc:type
           rdf:resource="http://purl.org/dc/dcmitype/StillImage" /><dc:title></dc:title></cc:Work></rdf:RDF></metadata><sodipodi:namedview
     pagecolor="#ffffff"
     bordercolor="#666666"
     borderopacity="1"
     objecttolerance="10"
     gridtolerance="10"
     guidetolerance="10"
     inkscape:pageopacity="0"
     inkscape:pageshadow="2"
     inkscape:window-width="1920"
     inkscape:window-height="1017"
     id="namedview33"
     showgrid="false"
     fit-margin-top="0"
     fit-margin-left="0"
     fit-margin-right="0"
     fit-margin-bottom="0"
     inkscape:zoom="1.59649"
     inkscape:cx="239.31015"
     inkscape:cy="23.088334"
     inkscape:window-x="0"
     inkscape:window-y="30"
     inkscape:window-maximized="1"
     inkscape:current-layer="Слой_x0020_1" /><defs
     id="defs4"><style
       type="text/css"
       id="style6"><![CDATA[
    .fil0 {fill:none}
    .fil2 {fill:#2B2A29;fill-rule:nonzero}
    .fil1 {fill:url(#id0)}
   ]]></style><linearGradient
       id="id0"
       gradientUnits="userSpaceOnUse"
       x1="13608.63"
       y1="9882.4102"
       x2="8145.3101"
       y2="10552.86"><stop
         offset="0"
         style="stop-opacity:1; stop-color:#594B97"
         id="stop9" /><stop
         offset="1"
         style="stop-opacity:1; stop-color:#201550"
         id="stop11" /></linearGradient></defs><g
     id="Слой_x0020_1"
     transform="translate(-8126.97,-7326.105)"><metadata
       id="CorelCorpID_0Corel-Layer" /><rect
       class="fil0"
       x="7428.3301"
       y="5717.6299"
       width="16000"
       height="9000"
       id="rect15"
       style="fill:none" /><path
       class="fil1"
       d="m 9796.4,8707.85 c 1087.65,-482.9 1978.87,-294.62 2877.56,418.55 95.76,75.99 192.52,44.64 192.52,30.69 0,-12.65 774.29,-882.49 760.3,-882.49 -25.08,0 -1097.31,-952.85 -2528.22,-948.48 -1615.7,0 -2971.59,922.42 -2971.59,2534.15 0,1208.45 171.72,1802.34 1350.19,1802.34 1336.69,0 2472.01,1446.42 2951.09,1446.42 -0.57,14.95 220.18,-1292.08 220.18,-1671.75 0,-67.81 -436.48,67.94 -436.48,-122.37 0,-94.98 -37.64,-296.65 47.22,-296.65 102.89,0 404.62,8.45 505.76,8.45 71.57,0 9.8,283.86 9.8,521.8 0,218.4 -10.1,448.81 119.86,448.81 l 158.05,-2279.09 c -287.05,0 -493.48,713.35 -1100.65,730.81 -528.32,-3.41 -754.36,237.27 -754.36,387.71 0,193.1 137.08,484.6 137.08,846.24 0,207.62 -26.56,565.33 -26.56,482.4 -18.39,-68.66 -364.49,-979.18 -1363.45,-912.7 C 8404,11314.7 8646.25,9218.5 9796.4,8707.85 Z m -417.93,1739.47 c 0,66.63 17.72,126.52 53.16,179.67 35.44,53.16 81.5,98.52 138.2,136.08 56.71,37.56 120.85,66.27 192.42,86.11 71.59,19.85 143.53,29.77 215.82,29.77 l 939.8,0 0,-654.87 924.91,0 -0.01,-250.9 -924.9,0 0,-625.12 0,-654.89 -301.93,0 0,654.89 c -356.32,0 -1135.41,-104.77 -1135.41,414.62 0,149.89 89.93,265.24 221.12,329.56 -62.36,8.5 -114.45,22.33 -156.28,41.46 -41.8,19.14 -75.11,43.24 -99.92,72.3 -24.81,29.05 -42.17,63.43 -52.1,103.12 -9.92,39.68 -14.88,85.76 -14.88,138.2 z m 395.49,-669.76 c 0,-271.85 666.99,-178.6 841.98,-178.6 l 0,374.22 c -130.43,0 -841.98,93.8 -841.98,-195.62 z m -102.07,625.11 c 0,-278.83 755.03,-178.6 944.05,-178.6 l 0,403.98 c -183.15,0 -944.05,114.32 -944.05,-225.38 z"
       id="path17"
       inkscape:connector-curvature="0"
       style="fill:url(#id0)" /><path
       class="fil2"
       d="m 13890.9,12306.85 c 72.18,24.22 108.19,74.36 108.19,150.26 0,36.63 -9.62,68.92 -29.02,96.86 -19.1,27.63 -44.86,47.18 -77.15,58.52 -32.44,11.33 -78.55,17.07 -138.47,17.07 l -360.73,0 0,-14.9 c 11.48,-3.11 19.09,-7.14 22.97,-12.26 3.88,-5.13 5.9,-14.13 5.9,-26.86 l 0,-513.16 c 0,-12.73 -2.02,-21.73 -5.9,-27.01 -3.88,-5.43 -11.49,-9.31 -22.97,-12.11 l 0,-14.9 369.27,0 c 36.32,0 66.45,2.95 90.19,8.7 23.75,5.74 44.71,15.21 62.87,28.56 41.75,30.11 62.55,73.11 62.55,129.3 0,59.76 -29.18,103.68 -87.7,131.93 z m -396.6,-30.26 238.58,0 c 33.84,0 59.14,-1.09 75.9,-3.26 16.77,-2.02 32.3,-6.06 46.58,-11.8 17.54,-7.3 31.04,-18.63 40.82,-33.84 9.62,-15.21 14.44,-32.75 14.44,-52.93 0,-26.7 -8.54,-49.67 -25.77,-68.45 -13.97,-14.9 -32.13,-25.15 -54.33,-30.89 -22.2,-5.59 -56.2,-8.38 -102.14,-8.38 l -234.08,0 0,209.55 z m 0,294.3 248.2,0 c 35.7,0 62.09,-1.09 79.32,-3.42 17.24,-2.33 33.23,-6.83 47.97,-13.5 18.16,-8.54 32.29,-21.27 42.38,-38.34 10.09,-17.08 15.21,-36.79 15.21,-59.3 0,-29.96 -8.85,-55.26 -26.7,-76.37 -14.9,-17.23 -33.68,-29.02 -56.65,-35.39 -22.99,-6.21 -58.22,-9.31 -106.03,-9.31 l -243.7,0 0,235.63 z"
       id="path19"
       inkscape:connector-curvature="0"
       style="fill:#2b2a29;fill-rule:nonzero" /><path
       id="1"
       class="fil2"
       d="m 14198.71,12398.59 0,179.59 c 0,12.57 2.02,21.42 5.9,26.7 3.88,5.43 11.49,9.47 22.97,12.57 l 0,12.11 -122.93,0 0,-12.11 c 11.8,-3.1 19.4,-7.14 23.28,-12.57 3.73,-5.28 5.59,-14.13 5.59,-26.54 l 0,-406.99 c 0,-12.73 -2.02,-21.74 -5.9,-26.86 -3.88,-5.12 -11.49,-9.16 -22.97,-12.26 l 0,-12.11 302.22,0 c 34.3,0 62.24,2.49 83.97,7.3 21.58,4.81 40.51,13.04 56.5,24.52 35.24,24.84 52.78,61.16 52.78,108.97 0,38.96 -12.27,69.85 -36.79,92.36 -24.68,22.5 -60.69,36.16 -108.35,40.66 l 127.91,203.5 c 4.5,6.98 9,11.64 13.35,14.12 4.34,2.49 12.26,4.51 23.43,5.9 l 0,12.11 -126.04,0 0,-12.11 c 11.8,-2.48 17.7,-6.21 17.7,-11.33 0,-3.72 -3.57,-11.02 -10.56,-21.88 l -117.65,-185.65 -184.41,0 z m 0,-49.36 193.87,0 c 31.2,0 54.64,-1.09 70.32,-3.42 15.68,-2.32 28.87,-6.51 39.74,-12.57 24.06,-13.35 36.01,-36.48 36.01,-69.54 0,-31.82 -11.18,-55.88 -33.68,-71.87 -20.65,-14.9 -55.73,-22.35 -105.09,-22.35 l -201.17,0 0,179.75 z"
       inkscape:connector-curvature="0"
       style="fill:#2b2a29;fill-rule:nonzero" /><path
       id="2"
       class="fil2"
       d="m 15088.44,12486.14 -267.13,0 -38.5,85.68 c -4.81,10.71 -7.29,18.62 -7.29,23.75 0,10.4 7.91,17.69 23.9,21.88 l 0,12.11 -125.73,0 0,-12.11 c 12.11,-2.17 21.58,-6.83 28.41,-14.28 6.83,-7.45 15.05,-21.73 24.37,-42.68 l 168.88,-366.79 c 9.47,-20.34 14.12,-34.31 14.12,-41.91 0,-10.56 -7.6,-17.08 -22.81,-19.56 l 0,-12.11 147.92,0 0,12.11 c -15.21,3.26 -22.81,9.93 -22.81,19.56 0,5.74 6.05,22.04 18.31,48.74 l 161.9,352.82 c 10.86,23.28 20.33,39.42 28.25,48.11 7.76,8.85 17.85,14.13 29.96,15.99 l 0,12.11 -132.72,0 0,-12.11 c 14.13,-3.1 21.11,-8.22 21.11,-15.52 0,-3.57 -3.57,-13.66 -10.86,-30.11 l -39.28,-85.68 z m -21.26,-49.37 -111.14,-249.9 -112.53,249.9 223.67,0 z"
       inkscape:connector-curvature="0"
       style="fill:#2b2a29;fill-rule:nonzero" /><path
       id="3"
       class="fil2"
       d="m 15331.83,12578.34 0,-406.99 c 0,-12.73 -2.02,-21.74 -5.9,-26.86 -3.88,-5.12 -11.49,-9.16 -22.97,-12.26 l 0,-12.11 122.93,0 0,12.11 c -11.48,3.1 -19.09,7.14 -22.97,12.26 -3.88,5.12 -5.9,14.13 -5.9,26.86 l 0,406.99 c 0,12.41 2.02,21.26 5.9,26.54 3.88,5.43 11.49,9.47 22.97,12.57 l 0,12.11 -122.93,0 0,-12.11 c 11.48,-3.1 19.09,-7.14 22.97,-12.57 3.88,-5.28 5.9,-14.13 5.9,-26.54 z"
       inkscape:connector-curvature="0"
       style="fill:#2b2a29;fill-rule:nonzero" /><path
       id="4"
       class="fil2"
       d="m 15618.68,12199.6 0,378.74 c 0,12.41 1.86,21.26 5.58,26.54 3.89,5.43 11.49,9.47 23.29,12.57 l 0,12.11 -111.76,0 0,-12.11 c 11.8,-3.1 19.4,-7.14 23.28,-12.57 3.73,-5.28 5.59,-14.13 5.59,-26.54 l 0,-406.99 c 0,-12.73 -2.02,-21.74 -5.9,-26.86 -3.88,-5.12 -11.49,-9.16 -22.97,-12.26 l 0,-12.11 165.15,0 0,12.11 c -15.67,5.12 -23.59,13.04 -23.59,23.75 0,9 5.74,20.02 17.23,32.75 l 300.35,336.83 0,-354.21 c 0,-12.73 -2.01,-21.74 -5.89,-26.86 -3.88,-5.12 -11.49,-9.16 -22.98,-12.26 l 0,-12.11 111.76,0 0,12.11 c -11.48,3.1 -19.09,7.14 -22.97,12.26 -3.88,5.12 -5.9,14.13 -5.9,26.86 l 0,406.99 c 0,12.41 1.86,21.26 5.59,26.54 3.88,5.43 11.49,9.47 23.28,12.57 l 0,12.11 -132.87,0 0,-12.11 c 15.68,-3.88 23.6,-10.24 23.6,-18.62 0,-6.37 -7.3,-17.85 -21.73,-34.15 l -328.14,-365.08 z"
       inkscape:connector-curvature="0"
       style="fill:#2b2a29;fill-rule:nonzero" /><path
       id="5"
       class="fil2"
       d="m 16535.26,12570.89 395.04,0 c 12.73,0 21.73,-2.02 27.01,-5.9 5.28,-3.88 9.31,-11.49 11.95,-22.98 l 14.9,0 0,116.42 -14.9,0 c -2.64,-11.49 -6.67,-19.09 -11.95,-22.97 -5.28,-3.88 -14.28,-5.9 -27.01,-5.9 l -495.62,0 0,-14.9 c 11.8,-3.11 19.4,-7.14 23.28,-12.26 3.73,-5.13 5.59,-14.13 5.59,-26.86 l 0,-513.16 c 0,-12.73 -2.02,-21.73 -5.9,-26.85 -3.88,-5.13 -11.49,-9.32 -22.97,-12.27 l 0,-14.9 129.45,0 0,14.9 c -11.48,3.11 -19.09,7.14 -22.97,12.27 -3.88,5.12 -5.9,14.12 -5.9,26.85 l 0,508.51 z"
       inkscape:connector-curvature="0"
       style="fill:#2b2a29;fill-rule:nonzero" /><path
       id="6"
       class="fil2"
       d="m 17146.37,12391.14 0,189.06 314.02,0 c 12.57,0 21.57,-1.86 27,-5.74 5.28,-3.88 9.16,-11.65 11.96,-23.13 l 13.04,0 0,107.1 -13.04,0 c -2.8,-11.49 -6.68,-19.09 -11.8,-22.97 -5.12,-3.88 -14.13,-5.9 -26.85,-5.9 l -408.39,0 0,-12.11 c 11.8,-3.1 19.4,-7.14 23.28,-12.57 3.73,-5.28 5.59,-14.13 5.59,-26.54 l 0,-406.99 c 0,-12.73 -2.02,-21.74 -5.9,-26.86 -3.88,-5.12 -11.49,-9.16 -22.97,-12.26 l 0,-12.11 406.06,0 c 12.73,0 21.73,-2.02 26.85,-5.9 5.12,-3.88 9.32,-11.48 12.26,-22.97 l 12.11,0 0,107.1 -12.11,0 c -3.1,-11.48 -7.14,-19.24 -12.26,-23.12 -5.12,-3.88 -14.12,-5.75 -26.85,-5.75 l -312,0 0,172.3 199.15,0 c 12.89,0 21.73,-2.02 27.01,-5.9 5.12,-3.88 9.16,-11.49 12.26,-22.97 l 12.11,0 0,107.1 -12.11,0 c -3.1,-11.49 -7.14,-19.25 -12.57,-23.13 -5.28,-3.88 -14.12,-5.74 -26.7,-5.74 l -199.15,0 z"
       inkscape:connector-curvature="0"
       style="fill:#2b2a29;fill-rule:nonzero" /><path
       id="7"
       class="fil2"
       d="m 18154.23,12167.62 -61.93,100.12 -10.4,-6.37 c 2.95,-10.55 4.5,-17.69 4.5,-21.42 0,-7.76 -14.44,-20.02 -43.31,-36.63 -46.88,-26.23 -96.55,-39.43 -149.01,-39.43 -64.42,0 -117.97,18.48 -160.5,55.42 -47.34,40.98 -71.09,93.91 -71.09,158.79 0,61.47 21.73,111.76 65.19,150.88 42.69,39.11 99.19,58.67 169.35,58.67 35.23,0 68.76,-5.28 100.74,-15.68 31.82,-10.4 58.82,-24.99 81.02,-43.46 l 0,-93.6 -115.33,0 c -12.73,0 -21.88,2.02 -27.16,5.9 -5.28,3.88 -9.32,11.49 -12.11,22.97 l -12.11,0 0,-107.1 12.11,0 c 2.79,11.49 6.68,19.25 12.11,23.13 5.28,3.88 14.28,5.74 27.01,5.74 l 201.16,0 0,12.11 c -11.48,2.79 -19.24,6.83 -23.12,12.11 -3.88,5.27 -5.75,14.28 -5.75,27.16 l 0,52.78 c 0,12.88 1.87,21.88 5.75,27.16 3.88,5.28 11.64,9.31 23.12,12.11 l 0,10.24 c -78.85,67.68 -170.43,101.52 -275.05,101.52 -82.42,0 -149.94,-22.2 -202.72,-66.44 -28.09,-24.06 -50.29,-52.77 -66.28,-86.61 -17.23,-35.7 -25.92,-72.96 -25.92,-111.45 0,-57.12 17.23,-108.5 51.84,-154.29 31.05,-40.67 72.18,-70.63 123.41,-89.72 38.33,-14.28 79.16,-21.42 122.93,-21.42 37.56,0 72.02,4.5 103.07,13.66 31.2,9 68.45,25.3 111.76,48.58 6.98,3.73 12.1,5.44 15.05,5.44 3.73,0 10.87,-6.06 21.42,-18.17 l 10.25,7.3 z"
       inkscape:connector-curvature="0"
       style="fill:#2b2a29;fill-rule:nonzero" /><path
       id="8"
       class="fil2"
       d="m 18288.5,12578.34 0,-406.99 c 0,-12.73 -2.02,-21.74 -5.9,-26.86 -3.88,-5.12 -11.49,-9.16 -22.97,-12.26 l 0,-12.11 122.93,0 0,12.11 c -11.48,3.1 -19.09,7.14 -22.97,12.26 -3.88,5.12 -5.9,14.13 -5.9,26.86 l 0,406.99 c 0,12.41 2.02,21.26 5.9,26.54 3.88,5.43 11.49,9.47 22.97,12.57 l 0,12.11 -122.93,0 0,-12.11 c 11.48,-3.1 19.09,-7.14 22.97,-12.57 3.88,-5.28 5.9,-14.13 5.9,-26.54 z"
       inkscape:connector-curvature="0"
       style="fill:#2b2a29;fill-rule:nonzero" /><path
       id="9"
       class="fil2"
       d="m 18785.84,12108.95 c 90.8,0 163.91,23.75 219.48,71.09 59.14,49.98 88.79,116.1 88.79,198.37 0,51.38 -14.59,98.41 -43.77,141.25 -54.95,80.72 -142.81,121.08 -263.57,121.08 -90.19,0 -162.98,-23.75 -218.55,-71.1 -59.14,-50.29 -88.8,-115.33 -88.8,-194.8 0,-53.71 14.45,-101.98 43.32,-144.82 30.58,-45.17 73.57,-78.08 128.83,-98.72 37.87,-14.28 82.73,-21.73 134.27,-22.35 z m 0,53.08 c -74.2,0 -133.8,22.66 -179.13,68.14 -39.58,39.43 -59.29,87.7 -59.29,144.67 0,56.97 19.71,105.24 59.29,144.67 45.33,45.48 105.24,68.14 180.06,68.14 74.82,0 134.73,-22.66 180.06,-68.14 39.58,-39.43 59.29,-86.77 59.29,-141.87 0,-59.77 -19.71,-108.97 -59.29,-147.47 -45.64,-44.85 -105.87,-67.52 -180.99,-68.14 z"
       inkscape:connector-curvature="0"
       style="fill:#2b2a29;fill-rule:nonzero" /><path
       id="10"
       class="fil2"
       d="m 19273.86,12199.6 0,378.74 c 0,12.41 1.86,21.26 5.58,26.54 3.89,5.43 11.49,9.47 23.29,12.57 l 0,12.11 -111.76,0 0,-12.11 c 11.8,-3.1 19.4,-7.14 23.28,-12.57 3.73,-5.28 5.59,-14.13 5.59,-26.54 l 0,-406.99 c 0,-12.73 -2.02,-21.74 -5.9,-26.86 -3.88,-5.12 -11.49,-9.16 -22.97,-12.26 l 0,-12.11 165.15,0 0,12.11 c -15.67,5.12 -23.59,13.04 -23.59,23.75 0,9 5.74,20.02 17.23,32.75 l 300.35,336.83 0,-354.21 c 0,-12.73 -2.01,-21.74 -5.89,-26.86 -3.88,-5.12 -11.49,-9.16 -22.98,-12.26 l 0,-12.11 111.76,0 0,12.11 c -11.48,3.1 -19.09,7.14 -22.97,12.26 -3.88,5.12 -5.9,14.13 -5.9,26.86 l 0,406.99 c 0,12.41 1.86,21.26 5.59,26.54 3.88,5.43 11.49,9.47 23.28,12.57 l 0,12.11 -132.87,0 0,-12.11 c 15.68,-3.88 23.6,-10.24 23.6,-18.62 0,-6.37 -7.3,-17.85 -21.73,-34.15 l -328.14,-365.08 z"
       inkscape:connector-curvature="0"
       style="fill:#2b2a29;fill-rule:nonzero" /><path
       class="fil2"
       d="m 13649.04,10476.02 0,329.69 810.26,0 0,219.79 -810.26,0 0,573.7 -264.5,0 0,-1341.11 1329.95,0 0,219.8 -1065.45,-1.87 z m 2194.22,1151.12 -152.74,-337.14 -508.51,0 -156.46,339 -186.27,-70.77 482.43,-1080.34 230.97,0 491.74,1061.7 -201.16,87.55 z m -407.93,-894.08 -171.36,374.4 340.87,0 -169.51,-374.4 z m 2020.99,681.74 c -14.91,12.42 -38.81,29.8 -71.71,52.15 -32.91,22.35 -76.07,44.7 -129.46,67.06 -53.39,22.35 -116.41,41.91 -189.06,58.67 -72.64,16.76 -155.53,25.15 -248.66,25.15 -83.21,0 -164.54,-11.8 -244.02,-35.39 -79.47,-23.6 -150.55,-59.29 -213.26,-107.11 -62.72,-47.8 -113.32,-107.72 -151.82,-179.74 -38.5,-72.03 -57.73,-157.09 -57.73,-255.19 0,-86.92 18.31,-166.7 54.94,-239.34 36.63,-72.65 87.23,-135.05 151.81,-187.2 64.57,-52.15 140.93,-92.51 229.11,-121.08 88.16,-28.56 183.78,-42.83 286.85,-42.83 70.78,0 136.59,6.51 197.44,19.55 60.85,13.04 114.86,28.87 162.05,47.5 47.19,18.63 87.24,37.25 120.14,55.88 32.91,18.63 56.81,33.53 71.71,44.71 l -96.86,176.94 c -11.17,-9.93 -31.04,-23.9 -59.61,-41.91 -28.55,-18 -63.32,-36.01 -104.3,-54.02 -40.98,-17.99 -88.16,-33.53 -141.56,-46.56 -53.4,-13.04 -110.52,-19.56 -171.37,-19.56 -62.09,0 -121.38,8.38 -177.88,25.15 -56.5,16.76 -106.8,41.91 -150.87,75.43 -44.09,33.53 -79.17,75.13 -105.25,124.8 -26.07,49.67 -39.12,107.41 -39.12,173.23 0,74.51 13.36,137.22 40.05,188.13 26.7,50.92 61.78,92.51 105.24,124.79 43.46,32.29 92.51,55.58 147.16,69.85 54.64,14.29 109.89,21.43 165.77,21.43 62.09,0 121.08,-7.14 176.96,-21.43 55.88,-14.27 105.86,-31.35 149.94,-51.21 44.09,-19.88 81.96,-40.05 113.62,-60.55 31.67,-20.48 54.33,-36.32 67.99,-47.49 l 111.76,160.19 z m 711.53,-754.38 0,938.78 -227.23,0 0,-938.78 -445.19,0 0,-182.53 1115.73,0 0,182.53 -443.31,0 z m 1862.67,370.67 c 0,81.96 -17.08,158.64 -51.23,230.04 -34.14,71.4 -82.27,133.5 -144.35,186.26 -62.1,52.78 -135.99,94.38 -221.66,124.81 -85.68,30.41 -180.06,45.63 -283.12,45.63 -103.07,0 -197.45,-15.22 -283.13,-45.63 -85.68,-30.43 -159.57,-72.03 -221.66,-124.81 -62.09,-52.76 -110.21,-114.86 -144.36,-186.26 -34.14,-71.4 -51.22,-148.08 -51.22,-230.04 0,-81.95 17.08,-158.63 51.22,-230.03 34.15,-71.41 82.27,-133.5 144.36,-186.27 62.09,-52.78 135.98,-94.38 221.66,-124.8 85.68,-30.43 180.06,-45.63 283.13,-45.63 103.06,0 197.44,15.2 283.12,45.63 85.67,30.42 159.56,72.02 221.66,124.8 62.08,52.77 110.21,114.86 144.35,186.27 34.15,71.4 51.23,148.08 51.23,230.03 z m -216.08,0 c 0,-59.6 -11.79,-114.24 -35.38,-163.91 -23.6,-49.67 -56.82,-92.21 -99.66,-127.59 -42.84,-35.4 -93.76,-63.02 -152.74,-82.9 -58.98,-19.86 -124.49,-29.8 -196.5,-29.8 -72.03,0 -137.54,9.94 -196.52,29.8 -58.98,19.88 -109.9,47.5 -152.73,82.9 -42.85,35.38 -76.07,77.92 -99.66,127.59 -23.6,49.67 -35.39,104.31 -35.39,163.91 0,59.61 11.79,114.24 35.39,163.92 23.59,49.66 56.81,92.2 99.66,127.59 42.83,35.38 93.75,63.02 152.73,82.88 58.98,19.88 124.49,29.81 196.52,29.81 72.01,0 137.52,-9.93 196.5,-29.81 58.98,-19.86 109.9,-47.5 152.74,-82.88 42.84,-35.39 76.06,-77.93 99.66,-127.59 23.59,-49.68 35.38,-104.31 35.38,-163.92 z m -482.42,137.84 -130.39,-128.53 130.39,-128.52 128.52,128.52 -128.52,128.53 z m 2346.95,530.86 c -47.18,33.52 -101.2,58.98 -162.06,76.37 -60.84,17.38 -129.14,14.89 -204.88,-7.46 -28.57,-8.69 -57.75,-22.03 -87.55,-40.04 -29.8,-18.01 -58.05,-38.5 -84.76,-61.47 -26.69,-22.98 -51.52,-47.49 -74.5,-73.58 -22.97,-26.08 -41.91,-51.53 -56.81,-76.37 -4.96,-7.45 -12.41,-18.93 -22.34,-34.45 -9.95,-15.52 -22.05,-33.53 -36.33,-54.02 -14.29,-20.49 -29.18,-42.85 -44.7,-67.06 -15.53,-24.21 -31.36,-48.11 -47.5,-71.71 -37.26,-55.88 -77.61,-117.34 -121.08,-184.4 l -329.69,0 0,493.6 -227.25,0 0,-1123.18 732.03,1.87 c 139.09,0 239.98,26.07 302.69,78.23 62.71,52.15 94.06,131 94.06,236.55 0,50.91 -8.69,95 -26.08,132.24 -17.38,37.26 -40.98,68.3 -70.78,93.14 -29.81,24.84 -63.64,44.4 -101.51,58.68 -37.88,14.27 -77.3,23.9 -118.28,28.87 40.98,59.6 78.22,114.25 111.75,163.91 14.91,21.11 29.5,42.53 43.78,64.26 14.28,21.74 27.63,41.91 40.04,60.54 12.42,18.63 23.6,35.08 33.53,49.36 9.94,14.28 17.39,25.15 22.35,32.6 19.88,32.28 39.75,59.29 59.61,81.02 19.87,21.74 40.05,40.67 60.53,56.82 20.5,16.13 42.54,29.18 66.14,39.11 23.59,9.94 50.29,18.63 80.09,26.07 18.62,4.98 44.39,10.26 77.29,15.84 32.92,5.59 63.65,7.14 92.21,4.66 z m -597.92,-907.12 c 0,-24.83 -2.79,-45.64 -8.38,-62.4 -5.59,-16.76 -15.83,-30.43 -30.74,-40.97 -14.89,-10.56 -35.07,-18.01 -60.53,-22.36 -25.45,-4.34 -58.05,-6.52 -97.79,-6.52 l -476.84,0 0,262.64 467.54,0 c 72.01,0 124.48,-9.32 157.38,-27.94 32.92,-18.63 49.36,-52.78 49.36,-102.45 z m 918.3,346.46 0,460.07 -227.25,0 0,-460.07 -379.98,-573.71 167.64,-117.34 331.55,501.06 339.01,-499.19 152.74,106.17 -383.71,583.01 z"
       id="path31"
       inkscape:connector-curvature="0"
       style="fill:#2b2a29;fill-rule:nonzero" /></g></svg>