<?xml version="1.0" encoding="UTF-8" standalone="no"?>
<!-- Creator: CorelDRAW 2017 -->

<svg
   xmlns:dc="http://purl.org/dc/elements/1.1/"
   xmlns:cc="http://creativecommons.org/ns#"
   xmlns:rdf="http://www.w3.org/1999/02/22-rdf-syntax-ns#"
   xmlns:svg="http://www.w3.org/2000/svg"
   xmlns="http://www.w3.org/2000/svg"
   xmlns:sodipodi="http://sodipodi.sourceforge.net/DTD/sodipodi-0.dtd"
   xmlns:inkscape="http://www.inkscape.org/namespaces/inkscape"
   xml:space="preserve"
   width="125.5609mm"
   height="57.830517mm"
   version="1.1"
   style="clip-rule:evenodd;fill-rule:evenodd;image-rendering:optimizeQuality;shape-rendering:geometricPrecision;text-rendering:geometricPrecision"
   viewBox="0 0 12556.09 5783.0517"
   id="svg2"
   inkscape:version="0.91 r13725"
   sodipodi:docname="brainlegion_studio.svg"><metadata
     id="metadata35"><rdf:RDF><cc:Work
         rdf:about=""><dc:format>image/svg+xml</dc:format><dc:type
           rdf:resource="http://purl.org/dc/dcmitype/StillImage" /><dc:title></dc:title></cc:Work></rdf:RDF></metadata><sodipodi:namedview
     pagecolor="#ffffff"
     bordercolor="#666666"
     borderopacity="1"
     objecttolerance="10"
     gridtolerance="10"
     guidetolerance="10"
     inkscape:pageopacity="0"
     inkscape:pageshadow="2"
     inkscape:window-width="1920"
     inkscape:window-height="1017"
     id="namedview33"
     showgrid="false"
     fit-margin-top="0"
     fit-margin-left="0"
     fit-margin-right="0"
     fit-margin-bottom="0"
     inkscape:zoom="4.5155556"
     inkscape:cx="480.84439"
     inkscape:cy="20.42891"
     inkscape:window-x="0"
     inkscape:window-y="30"
     inkscape:window-maximized="1"
     inkscape:current-layer="Слой_x0020_1" /><defs
     id="defs4"><style
       type="text/css"
       id="style6"><![CDATA[
    .fil0 {fill:none}
    .fil2 {fill:#2B2A29;fill-rule:nonzero}
    .fil1 {fill:url(#id0)}
   ]]></style><linearGradient
       id="id0"
       gradientUnits="userSpaceOnUse"
       x1="13608.63"
       y1="9882.4102"
       x2="8145.3101"
       y2="10552.86"><stop
         offset="0"
         style="stop-opacity:1; stop-color:#594B97"
         id="stop9" /><stop
         offset="1"
         style="stop-opacity:1; stop-color:#201550"
         id="stop11" /></linearGradient><style
       id="style6-35"
       type="text/css"><![CDATA[
    .fil0 {fill:none}
    .fil2 {fill:#2B2A29;fill-rule:nonzero}
    .fil1 {fill:url(#id0)}
   ]]></style><style
       type="text/css"
       id="style6-3"><![CDATA[
    .fil0 {fill:none}
    .fil2 {fill:#2B2A29;fill-rule:nonzero}
    .fil1 {fill:url(#id0)}
   ]]></style></defs><g
     id="Слой_x0020_1"
     transform="translate(-8126.97,-7326.105)"><metadata
       id="CorelCorpID_0Corel-Layer" /><rect
       class="fil0"
       x="7428.3301"
       y="5717.6299"
       width="16000"
       height="9000"
       id="rect15"
       style="fill:none" /><path
       class="fil1"
       d="m 9796.4,8707.85 c 1087.65,-482.9 1978.87,-294.62 2877.56,418.55 95.76,75.99 192.52,44.64 192.52,30.69 0,-12.65 774.29,-882.49 760.3,-882.49 -25.08,0 -1097.31,-952.85 -2528.22,-948.48 -1615.7,0 -2971.59,922.42 -2971.59,2534.15 0,1208.45 171.72,1802.34 1350.19,1802.34 1336.69,0 2472.01,1446.42 2951.09,1446.42 -0.57,14.95 220.18,-1292.08 220.18,-1671.75 0,-67.81 -436.48,67.94 -436.48,-122.37 0,-94.98 -37.64,-296.65 47.22,-296.65 102.89,0 404.62,8.45 505.76,8.45 71.57,0 9.8,283.86 9.8,521.8 0,218.4 -10.1,448.81 119.86,448.81 l 158.05,-2279.09 c -287.05,0 -493.48,713.35 -1100.65,730.81 -528.32,-3.41 -754.36,237.27 -754.36,387.71 0,193.1 137.08,484.6 137.08,846.24 0,207.62 -26.56,565.33 -26.56,482.4 -18.39,-68.66 -364.49,-979.18 -1363.45,-912.7 C 8404,11314.7 8646.25,9218.5 9796.4,8707.85 Z m -417.93,1739.47 c 0,66.63 17.72,126.52 53.16,179.67 35.44,53.16 81.5,98.52 138.2,136.08 56.71,37.56 120.85,66.27 192.42,86.11 71.59,19.85 143.53,29.77 215.82,29.77 l 939.8,0 0,-654.87 924.91,0 -0.01,-250.9 -924.9,0 0,-625.12 0,-654.89 -301.93,0 0,654.89 c -356.32,0 -1135.41,-104.77 -1135.41,414.62 0,149.89 89.93,265.24 221.12,329.56 -62.36,8.5 -114.45,22.33 -156.28,41.46 -41.8,19.14 -75.11,43.24 -99.92,72.3 -24.81,29.05 -42.17,63.43 -52.1,103.12 -9.92,39.68 -14.88,85.76 -14.88,138.2 z m 395.49,-669.76 c 0,-271.85 666.99,-178.6 841.98,-178.6 l 0,374.22 c -130.43,0 -841.98,93.8 -841.98,-195.62 z m -102.07,625.11 c 0,-278.83 755.03,-178.6 944.05,-178.6 l 0,403.98 c -183.15,0 -944.05,114.32 -944.05,-225.38 z"
       id="path17"
       inkscape:connector-curvature="0"
       style="fill:url(#id0)" /><g
       style="clip-rule:evenodd;fill-rule:evenodd;image-rendering:optimizeQuality;shape-rendering:geometricPrecision;text-rendering:geometricPrecision"
       id="g3384"
       transform="translate(24821.123,3077.5329)"><g
         transform="translate(-8126.97,-7326.105)"
         id="Слой_x0020_1-9"><metadata
           id="CorelCorpID_0Corel-Layer-1" /><rect
           style="fill:none"
           id="rect15-2"
           height="9000"
           width="16000"
           y="5717.6299"
           x="7428.3301"
           class="fil0" /><g
           transform="translate(19263.418,6664.4202)"
           id="g3377"
           style="clip-rule:evenodd;fill-rule:evenodd;image-rendering:optimizeQuality;shape-rendering:geometricPrecision;text-rendering:geometricPrecision"><g
             id="Слой_x0020_1-2"
             transform="translate(-8126.97,-7326.105)"><metadata
               id="CorelCorpID_0Corel-Layer-9" /><rect
               class="fil0"
               x="7428.3301"
               y="5717.6299"
               width="16000"
               height="9000"
               id="rect15-1"
               style="fill:none" /><g
               transform="translate(-14414.075,-560.18389)"
               id="g3443" /></g></g></g></g><g
       transform="translate(20799.067,-8834.9487)"
       style="clip-rule:evenodd;fill-rule:evenodd;image-rendering:optimizeQuality;shape-rendering:geometricPrecision;text-rendering:geometricPrecision"
       id="g3455"><path
         class="fil2"
         d="m -6917.3432,21141.788 c 72.18,24.22 108.19,74.36 108.19,150.26 0,36.63 -9.62,68.92 -29.02,96.86 -19.1,27.63 -44.86,47.18 -77.15,58.52 -32.44,11.33 -78.54,17.07 -138.46,17.07 l -360.73,0 0,-14.9 c 11.48,-3.11 19.09,-7.14 22.97,-12.26 3.88,-5.13 5.9,-14.13 5.9,-26.86 l 0,-513.16 c 0,-12.73 -2.02,-21.73 -5.9,-27.01 -3.88,-5.43 -11.49,-9.31 -22.97,-12.11 l 0,-14.9 369.27,0 c 36.32,0 66.44,2.95 90.18,8.7 23.75,5.74 44.71,15.21 62.87,28.56 41.75,30.11 62.55,73.11 62.55,129.3 0,59.76 -29.18,103.68 -87.7,131.93 z m -396.59,-30.26 238.58,0 c 33.84,0 59.14,-1.09 75.9,-3.26 16.77,-2.02 32.29,-6.06 46.57,-11.8 17.54,-7.3 31.04,-18.63 40.82,-33.84 9.62,-15.21 14.44,-32.75 14.44,-52.93 0,-26.7 -8.54,-49.67 -25.77,-68.45 -13.97,-14.9 -32.13,-25.15 -54.33,-30.89 -22.19,-5.59 -56.19,-8.38 -102.13,-8.38 l -234.08,0 0,209.55 z m 0,294.3 248.2,0 c 35.7,0 62.09,-1.09 79.32,-3.42 17.23,-2.33 33.22,-6.83 47.96,-13.5 18.16,-8.54 32.29,-21.27 42.38,-38.34 10.09,-17.08 15.21,-36.79 15.21,-59.3 0,-29.96 -8.85,-55.26 -26.7,-76.37 -14.9,-17.23 -33.68,-29.02 -56.65,-35.39 -22.98,-6.21 -58.21,-9.31 -106.02,-9.31 l -243.7,0 0,235.63 z"
         id="path19-7"
         inkscape:connector-curvature="0"
         style="clip-rule:evenodd;fill:#2b2a29;fill-rule:nonzero;image-rendering:optimizeQuality;shape-rendering:geometricPrecision;text-rendering:geometricPrecision" /><path
         id="1-0"
         class="fil2"
         d="m -6609.5333,21233.528 0,179.59 c 0,12.57 2.0199,21.42 5.9,26.7 3.88,5.43 11.49,9.47 22.97,12.57 l 0,12.11 -122.9299,0 0,-12.11 c 11.8,-3.1 19.3999,-7.14 23.2799,-12.57 3.7301,-5.28 5.59,-14.13 5.59,-26.54 l 0,-406.99 c 0,-12.73 -2.019,-21.74 -5.9,-26.86 -3.8799,-5.12 -11.49,-9.16 -22.9699,-12.26 l 0,-12.11 302.2199,0 c 34.3,0 62.24,2.49 83.97,7.3 21.58,4.81 40.51,13.04 56.5,24.52 35.24,24.84 52.78,61.16 52.78,108.97 0,38.96 -12.27,69.85 -36.79,92.36 -24.68,22.5 -60.69,36.16 -108.35,40.66 l 127.91,203.5 c 4.5,6.98 9,11.64 13.35,14.12 4.34,2.49 12.26,4.51 23.43,5.9 l 0,12.11 -126.04,0 0,-12.11 c 11.8,-2.48 17.7,-6.21 17.7,-11.33 0,-3.72 -3.57,-11.02 -10.56,-21.88 l -117.65,-185.65 -184.41,0 z m 0,-49.36 193.87,0 c 31.2,0 54.64,-1.09 70.32,-3.42 15.68,-2.321 28.87,-6.51 39.74,-12.57 24.06,-13.35 36.01,-36.48 36.01,-69.54 0,-31.82 -11.18,-55.88 -33.68,-71.87 -20.65,-14.9 -55.73,-22.35 -105.09,-22.35 l -201.17,0 0,179.75 z"
         inkscape:connector-curvature="0"
         style="clip-rule:evenodd;fill:#2b2a29;fill-rule:nonzero;image-rendering:optimizeQuality;shape-rendering:geometricPrecision;text-rendering:geometricPrecision" /><path
         id="2-9"
         class="fil2"
         d="m -5719.8033,21321.078 -267.13,0 -38.5,85.68 c -4.81,10.71 -7.29,18.62 -7.29,23.75 0,10.4 7.91,17.69 23.9,21.88 l 0,12.11 -125.73,0 0,-12.11 c 12.11,-2.17 21.58,-6.83 28.41,-14.28 6.83,-7.45 15.05,-21.73 24.37,-42.68 l 168.88,-366.79 c 9.47,-20.34 14.12,-34.31 14.12,-41.91 0,-10.56 -7.6,-17.08 -22.81,-19.56 l 0,-12.11 147.92,0 0,12.11 c -15.21,3.26 -22.81,9.93 -22.81,19.56 0,5.74 6.05,22.04 18.31,48.74 l 161.9,352.82 c 10.86,23.28 20.33,39.42 28.25,48.11 7.76,8.85 17.85,14.13 29.96,15.99 l 0,12.11 -132.72,0 0,-12.11 c 14.13,-3.1 21.11,-8.22 21.11,-15.52 0,-3.57 -3.57,-13.66 -10.86,-30.11 l -39.28,-85.68 z m -21.26,-49.37 -111.14,-249.9 -112.53,249.9 223.67,0 z"
         inkscape:connector-curvature="0"
         style="clip-rule:evenodd;fill:#2b2a29;fill-rule:nonzero;image-rendering:optimizeQuality;shape-rendering:geometricPrecision;text-rendering:geometricPrecision" /><path
         id="3-3"
         class="fil2"
         d="m -5476.4134,21413.278 0,-406.99 c 0,-12.73 -2.0198,-21.74 -5.8999,-26.86 -3.88,-5.12 -11.49,-9.16 -22.97,-12.26 l 0,-12.11 122.93,0 0,12.11 c -11.4801,3.1 -19.09,7.14 -22.9701,12.26 -3.8799,5.12 -5.9,14.13 -5.9,26.86 l 0,406.99 c 0,12.41 2.0199,21.26 5.9,26.54 3.8801,5.43 11.49,9.47 22.9701,12.57 l 0,12.11 -122.93,0 0,-12.11 c 11.48,-3.1 19.09,-7.14 22.97,-12.57 3.8799,-5.28 5.8999,-14.13 5.8999,-26.54 z"
         inkscape:connector-curvature="0"
         style="clip-rule:evenodd;fill:#2b2a29;fill-rule:nonzero;image-rendering:optimizeQuality;shape-rendering:geometricPrecision;text-rendering:geometricPrecision" /><path
         id="4-6"
         class="fil2"
         d="m -5189.5634,21034.538 0,378.74 c 0,12.41 1.8602,21.26 5.58,26.54 3.89,5.43 11.49,9.47 23.29,12.57 l 0,12.11 -111.76,0 0,-12.11 c 11.8,-3.1 19.4,-7.14 23.28,-12.57 3.73,-5.28 5.59,-14.13 5.59,-26.54 l 0,-406.99 c 0,-12.73 -2.0198,-21.74 -5.9,-26.86 -3.8799,-5.12 -11.49,-9.16 -22.97,-12.26 l 0,-12.11 165.15,0 0,12.11 c -15.67,5.12 -23.59,13.04 -23.59,23.75 0,9 5.74,20.02 17.23,32.75 l 300.35,336.83 0,-354.21 c 0,-12.73 -2.01,-21.74 -5.89,-26.86 -3.88,-5.12 -11.49,-9.16 -22.98,-12.26 l 0,-12.11 111.76,0 0,12.11 c -11.48,3.1 -19.09,7.14 -22.97,12.26 -3.88,5.12 -5.9,14.13 -5.9,26.86 l 0,406.99 c 0,12.41 1.8601,21.26 5.59,26.54 3.88,5.43 11.49,9.47 23.28,12.57 l 0,12.11 -132.87,0 0,-12.11 c 15.68,-3.88 23.6,-10.24 23.6,-18.62 0,-6.37 -7.3,-17.85 -21.73,-34.15 l -328.14,-365.08 z"
         inkscape:connector-curvature="0"
         style="clip-rule:evenodd;fill:#2b2a29;fill-rule:nonzero;image-rendering:optimizeQuality;shape-rendering:geometricPrecision;text-rendering:geometricPrecision" /><path
         id="5-0"
         class="fil2"
         d="m -4272.9833,21405.828 395.0399,0 c 12.7299,0 21.73,-2.02 27.0098,-5.9 5.2801,-3.88 9.3103,-11.49 11.9502,-22.98 l 14.8999,0 0,116.42 -14.8999,0 c -2.6388,-11.49 -6.6701,-19.09 -11.9502,-22.97 -5.2798,-3.88 -14.2799,-5.9 -27.0098,-5.9 l -495.62,0 0,-14.9 c 11.8,-3.11 19.4,-7.14 23.28,-12.26 3.7301,-5.13 5.5899,-14.13 5.5899,-26.86 l 0,-513.16 c 0,-12.73 -2.0207,-21.73 -5.8998,-26.85 -3.88,-5.13 -11.4901,-9.32 -22.9701,-12.27 l 0,-14.9 129.45,0 0,14.9 c -11.48,3.11 -19.0901,7.14 -22.9701,12.27 -3.88,5.12 -5.8998,14.12 -5.8998,26.85 l 0,508.51 z"
         inkscape:connector-curvature="0"
         style="clip-rule:evenodd;fill:#2b2a29;fill-rule:nonzero;image-rendering:optimizeQuality;shape-rendering:geometricPrecision;text-rendering:geometricPrecision" /><path
         id="6-6"
         class="fil2"
         d="m -3661.8735,21226.078 0,189.06 314.0199,0 c 12.5702,0 21.57,-1.861 27.0002,-5.74 5.2798,-3.88 9.1598,-11.65 11.96,-23.13 l 13.0398,0 0,107.1 -13.0398,0 c -2.7996,-11.49 -6.6802,-19.09 -11.8002,-22.97 -5.1198,-3.88 -14.1298,-5.9 -26.8498,-5.9 l -408.3899,0 0,-12.11 c 11.7999,-3.1 19.3999,-7.14 23.2799,-12.57 3.7299,-5.28 5.59,-14.13 5.59,-26.54 l 0,-406.99 c 0,-12.73 -2.0207,-21.74 -5.9002,-26.86 -3.88,-5.12 -11.4898,-9.16 -22.9697,-12.26 l 0,-12.11 406.0599,0 c 12.7299,0 21.7299,-2.02 26.85,-5.9 5.1198,-3.88 9.3198,-11.48 12.26,-22.97 l 12.1099,0 0,107.1 -12.1099,0 c -3.1002,-11.48 -7.1402,-19.24 -12.26,-23.12 -5.1201,-3.88 -14.1201,-5.75 -26.85,-5.75 l -312.0001,0 0,172.3 199.1501,0 c 12.89,0 21.73,-2.02 27.0098,-5.9 5.1201,-3.88 9.1601,-11.49 12.26,-22.97 l 12.1102,0 0,107.1 -12.1102,0 c -3.0999,-11.49 -7.1399,-19.25 -12.5699,-23.13 -5.2801,-3.88 -14.1201,-5.74 -26.6999,-5.74 l -199.1501,0 z"
         inkscape:connector-curvature="0"
         style="clip-rule:evenodd;fill:#2b2a29;fill-rule:nonzero;image-rendering:optimizeQuality;shape-rendering:geometricPrecision;text-rendering:geometricPrecision" /><path
         id="7-2"
         class="fil2"
         d="m -2654.0137,21002.558 -61.93,100.12 -10.3998,-6.37 c 2.95,-10.55 4.5,-17.69 4.5,-21.42 0,-7.76 -14.4399,-20.02 -43.3101,-36.63 -46.8799,-26.23 -96.5499,-39.43 -149.01,-39.43 -64.42,0 -117.97,18.48 -160.5,55.42 -47.34,40.98 -71.0898,93.91 -71.0898,158.79 0,61.47 21.73,111.76 65.1899,150.88 42.6901,39.11 99.1899,58.67 169.35,58.67 35.2301,0 68.7601,-5.28 100.7401,-15.68 31.82,-10.4 58.8199,-24.99 81.0198,-43.46 l 0,-93.6 -115.3299,0 c -12.7302,0 -21.8801,2.02 -27.1599,5.9 -5.2801,3.88 -9.3201,11.49 -12.1102,22.97 l -12.1098,0 0,-107.1 12.1098,0 c 2.7912,11.49 6.68,19.25 12.1102,23.13 5.2798,3.88 14.2799,5.74 27.0098,5.74 l 201.1601,0 0,12.11 c -11.48,2.79 -19.2399,6.83 -23.1199,12.11 -3.88,5.27 -5.75,14.28 -5.75,27.16 l 0,52.78 c 0,12.88 1.8711,21.88 5.75,27.16 3.88,5.28 11.6399,9.31 23.1199,12.11 l 0,10.24 c -78.8501,67.68 -170.4301,101.52 -275.0501,101.52 -82.4199,0 -149.9399,-22.2 -202.7199,-66.44 -28.0899,-24.06 -50.2901,-52.77 -66.2799,-86.61 -17.23,-35.7 -25.9202,-72.96 -25.9202,-111.45 0,-57.12 17.23,-108.5 51.84,-154.29 31.0501,-40.67 72.1801,-70.63 123.4102,-89.72 38.33,-14.28 79.1599,-21.42 122.9297,-21.42 37.5601,0 72.02,4.5 103.0701,13.66 31.2,9 68.4499,25.3 111.76,48.58 6.9799,3.73 12.1,5.44 15.0501,5.44 3.7298,0 10.8701,-6.06 21.4201,-18.17 l 10.2497,7.3 z"
         inkscape:connector-curvature="0"
         style="clip-rule:evenodd;fill:#2b2a29;fill-rule:nonzero;image-rendering:optimizeQuality;shape-rendering:geometricPrecision;text-rendering:geometricPrecision" /><path
         id="8-6"
         class="fil2"
         d="m -2519.7436,21413.278 0,-406.99 c 0,-12.73 -2.0207,-21.74 -5.8999,-26.86 -3.88,-5.12 -11.4901,-9.16 -22.97,-12.26 l 0,-12.11 122.93,0 0,12.11 c -11.4799,3.1 -19.0901,7.14 -22.97,12.26 -3.88,5.12 -5.9002,14.13 -5.9002,26.86 l 0,406.99 c 0,12.41 2.0207,21.26 5.9002,26.54 3.8799,5.43 11.4901,9.47 22.97,12.57 l 0,12.11 -122.93,0 0,-12.11 c 11.4799,-3.1 19.09,-7.14 22.97,-12.57 3.88,-5.28 5.8999,-14.13 5.8999,-26.54 z"
         inkscape:connector-curvature="0"
         style="clip-rule:evenodd;fill:#2b2a29;fill-rule:nonzero;image-rendering:optimizeQuality;shape-rendering:geometricPrecision;text-rendering:geometricPrecision" /><path
         id="9-1"
         class="fil2"
         d="m -2022.4136,20943.888 c 90.7999,0 163.9101,23.75 219.48,71.09 59.1399,49.98 88.7899,116.1 88.7899,198.37 0,51.38 -14.5898,98.41 -43.7699,141.25 -54.95,80.72 -142.81,121.08 -263.5701,121.08 -90.1898,0 -162.9799,-23.75 -218.5498,-71.1 -59.1402,-50.29 -88.7902,-115.33 -88.7902,-194.8 0,-53.71 14.4402,-101.98 43.3101,-144.82 30.5799,-45.17 73.57,-78.08 128.8299,-98.72 37.87,-14.28 82.7301,-21.73 134.2701,-22.35 z m 0,53.08 c -74.1999,0 -133.7999,22.66 -179.1298,68.14 -39.5803,39.43 -59.2901,87.7 -59.2901,144.67 0,56.97 19.7098,105.24 59.2901,144.67 45.3299,45.48 105.2398,68.14 180.0597,68.14 74.8202,0 134.7301,-22.66 180.06,-68.14 39.58,-39.43 59.2901,-86.77 59.2901,-141.87 0,-59.77 -19.7101,-108.97 -59.2901,-147.47 -45.6398,-44.85 -105.87,-67.52 -180.9899,-68.14 z"
         inkscape:connector-curvature="0"
         style="clip-rule:evenodd;fill:#2b2a29;fill-rule:nonzero;image-rendering:optimizeQuality;shape-rendering:geometricPrecision;text-rendering:geometricPrecision" /><path
         id="10-8"
         class="fil2"
         d="m -1534.3936,21034.538 0,378.74 c 0,12.41 1.8599,21.26 5.5798,26.54 3.8902,5.43 11.4902,9.47 23.2901,12.57 l 0,12.11 -111.7599,0 0,-12.11 c 11.7999,-3.1 19.3999,-7.14 23.2799,-12.57 3.7301,-5.28 5.59,-14.13 5.59,-26.54 l 0,-406.99 c 0,-12.73 -2.0207,-21.74 -5.8999,-26.86 -3.88,-5.12 -11.4901,-9.16 -22.97,-12.26 l 0,-12.11 165.1499,0 0,12.11 c -15.6698,5.12 -23.5898,13.04 -23.5898,23.75 0,9 5.7398,20.02 17.2299,32.75 l 300.3499,336.83 0,-354.21 c 0,-12.73 -2.0094,-21.74 -5.8899,-26.86 -3.88,-5.12 -11.4902,-9.16 -22.98,-12.26 l 0,-12.11 111.76,0 0,12.11 c -11.48,3.1 -19.0901,7.14 -22.9701,12.26 -3.88,5.12 -5.9001,14.13 -5.9001,26.86 l 0,406.99 c 0,12.41 1.8598,21.26 5.5903,26.54 3.8799,5.43 11.4898,9.47 23.2799,12.57 l 0,12.11 -132.8699,0 0,-12.11 c 15.68,-3.88 23.6,-10.24 23.6,-18.62 0,-6.37 -7.3003,-17.85 -21.73,-34.15 l -328.1401,-365.08 z"
         inkscape:connector-curvature="0"
         style="clip-rule:evenodd;fill:#2b2a29;fill-rule:nonzero;image-rendering:optimizeQuality;shape-rendering:geometricPrecision;text-rendering:geometricPrecision" /><path
         class="fil2"
         d="m -5972.8133,20000.778 c 0,70.78 -17.39,133.49 -52.16,188.13 -34.76,54.63 -85.06,100.9 -150.88,138.77 -65.81,37.88 -145.9,66.74 -240.28,86.62 -94.37,19.86 -201.16,29.8 -320.3799,29.8 -101.83,0 -192.16,-8.39 -271.02,-25.15 -78.84,-16.76 -146.84,-36.01 -203.96,-57.74 -57.12,-21.74 -102.44,-42.84 -135.97,-63.34 -33.53,-20.48 -55.88,-34.45 -67.06,-41.91 l 108.04,-204.88 c 72.02,44.7 155.22,84.74 249.6,120.14 94.37,35.38 201.16,53.08 320.37,53.08 84.45,0 157.3999,-5.9 218.8699,-17.7 61.47,-11.79 111.76,-27.94 150.87,-48.43 39.12,-20.48 67.98,-44.08 86.62,-70.77 18.62,-26.7 27.94,-55.57 27.94,-86.62 0,-34.77 -9.32,-63.64 -27.94,-86.61 -18.64,-22.98 -45.95,-40.99 -81.96,-54.02 -36.02,-13.04 -80.09,-22.35 -132.26,-27.94 -52.15,-5.59 -112.37,-8.38 -180.6699,-8.38 -108.03,0 -206.45,-2.49 -295.23,-7.45 -88.79,-4.97 -164.23,-18.63 -226.31,-40.99 -62.09,-22.35 -110.21,-57.43 -144.36,-105.23 -34.15,-47.81 -51.22,-114.56 -51.22,-200.24 0,-78.23 20.49,-144.35 61.46,-198.37 40.98,-54.02 95,-97.48 162.06,-130.38 67.05,-32.92 143.73,-56.82 230.04,-71.72 86.29,-14.9 174.78,-22.36 265.4299,-22.36 80.7101,0 157.39,6.84 230.03,20.5 72.65,13.66 137.84,29.18 195.58,46.56 57.74,17.39 106.17,34.46 145.29,51.23 39.12,16.76 66.12,28.25 81.03,34.46 l -111.76,206.76 c -11.18,-6.22 -31.98,-17.09 -62.41,-32.61 -30.41,-15.52 -69.22,-31.04 -116.41,-46.56 -47.19,-15.52 -102.14,-29.49 -164.85,-41.91 -62.71,-12.42 -131.93,-18.62 -207.6799,-18.62 -146.53,0 -257.04,19.24 -331.56,57.74 -74.5,38.48 -111.76,86.92 -111.76,145.28 0,28.56 8.38,51.85 25.15,69.85 16.76,18.01 43.15,31.98 79.16,41.91 36.02,9.94 82.89,16.46 140.64,19.56 57.74,3.1 126.96,4.65 207.68,4.65 96.8699,0 187.8199,3.73 272.8799,11.18 85.06,7.45 159.57,24.84 223.52,52.15 63.95,27.33 114.24,67.06 150.87,119.22 36.64,52.15 54.96,122.94 54.96,212.34 z m 709.6599,-523.41 0,938.79 -227.2399,0 0,-938.79 -445.18,0 0,-182.53 1115.7299,0 0,182.53 -443.31,0 z m 1745.3199,473.12 c 0,79.48 -13.97,149.33 -41.91,209.55 -27.94,60.23 -67.6898,110.83 -119.2199,151.8 -51.5302,40.99 -113.31,71.72 -185.33,92.2 -72.0302,20.5 -151.5,30.74 -238.4199,30.74 -88.1702,0 -167.9502,-10.24 -239.3501,-30.74 -71.4,-20.48 -132.87,-51.21 -184.4099,-92.2 -51.5302,-40.97 -91.2601,-91.57 -119.2001,-151.8 -27.94,-60.22 -41.91,-130.07 -41.91,-209.55 l 0,-655.65 227.2299,0 0,663.1 c 0,40.97 7.7702,79.47 23.2901,115.49 15.52,36 38.1799,67.36 67.9899,94.06 29.8001,26.7 67.0599,47.5 111.76,62.4 44.7102,14.9 96.2301,22.35 154.6002,22.35 58.3599,0 109.8999,-7.45 154.5999,-22.35 44.7099,-14.9 81.95,-35.7 111.76,-62.4 29.7998,-26.7 52.1499,-58.06 67.0599,-94.06 14.8901,-36.02 22.3501,-74.52 22.3501,-115.49 l 0,-663.1 229.1099,0 0,655.65 z m 1398.8598,-102.45 c 0,80.72 -13.0398,155.54 -39.1199,224.45 -26.0799,68.92 -65.81,128.83 -119.2099,179.75 -53.3902,50.91 -120.14,90.96 -200.2301,120.15 -80.1001,29.18 -174.1599,43.77 -282.1901,43.77 l -499.2098,0 0,-1123.19 555.0898,1.87 c 98.09,0 183.7702,13.97 257.0401,41.91 73.2601,27.94 134.1002,66.12 182.5399,114.55 48.4302,48.42 84.7502,106.48 108.9601,174.15 24.2102,67.69 36.3299,141.88 36.3299,222.59 z m -227.2498,0 c 0,-65.82 -6.2101,-122 -18.6301,-168.57 -12.42,-46.57 -33.5201,-84.75 -63.3199,-114.55 -29.8002,-29.81 -68.9201,-51.84 -117.35,-66.13 -48.4302,-14.28 -108.6601,-21.42 -180.6801,-21.42 l -305.4798,0 0,756.24 249.5998,0 c 68.2902,0 129.45,-6.83 183.4702,-20.48 54.0198,-13.66 99.6498,-35.71 136.9099,-66.13 37.2401,-30.42 65.81,-70.16 85.6798,-119.21 19.86,-49.05 29.8002,-108.97 29.8002,-179.75 z m 376.2499,568.12 0,-1121.32 225.39,0 0,1121.32 -225.39,0 z m 1775.12996,-568.12 c 0,81.96 -17.0801,158.64 -51.2301,230.04 -34.1501,71.4 -82.2701,133.5 -144.3499,186.26 -62.1002,52.78 -135.9902,94.38 -221.6701,124.81 -85.6699,30.42 -180.0501,45.63 -283.11,45.63 -103.0698,0 -197.44996,-15.21 -283.12986,-45.63 -85.6801,-30.43 -159.5701,-72.03 -221.6601,-124.81 -62.09,-52.76 -110.21,-114.86 -144.3601,-186.26 -34.1398,-71.4 -51.2199,-148.08 -51.2199,-230.04 0,-81.95 17.0801,-158.63 51.2199,-230.03 34.1501,-71.41 82.2701,-133.5 144.3601,-186.27 62.09,-52.78 135.98,-94.38 221.6601,-124.8 85.6799,-30.43 180.06006,-45.63 283.12986,-45.63 103.0599,0 197.4401,15.2 283.11,45.63 85.6799,30.42 159.5699,72.02 221.6701,124.8 62.0798,52.77 110.1998,114.86 144.3499,186.27 34.15,71.4 51.2301,148.08 51.2301,230.03 z m -216.0801,0 c 0,-59.6 -11.7901,-114.24 -35.3799,-163.91 -23.6,-49.67 -56.8201,-92.21 -99.66,-127.59 -42.8402,-35.4 -93.7602,-63.02 -152.7401,-82.9 -58.9799,-19.86 -124.4899,-29.8 -196.5,-29.8 -72.0299,0 -137.53986,9.94 -196.52006,29.8 -58.9799,19.88 -109.8999,47.5 -152.7299,82.9 -42.8498,35.38 -76.0699,77.92 -99.66,127.59 -23.6,49.67 -35.3898,104.31 -35.3898,163.91 0,59.61 11.7898,114.24 35.3898,163.92 23.5901,49.66 56.8102,92.2 99.66,127.59 42.83,35.39 93.75,63.02 152.7299,82.88 58.9802,19.88 124.49016,29.81 196.52006,29.81 72.0101,0 137.5201,-9.93 196.5,-29.81 58.9799,-19.86 109.8999,-47.49 152.7401,-82.88 42.8399,-35.39 76.06,-77.93 99.66,-127.59 23.5898,-49.68 35.3799,-104.31 35.3799,-163.92 z m -482.4199,137.84 -130.39006,-128.53 130.39006,-128.52 128.52,128.52 -128.52,128.53 z"
         id="path31-7"
         inkscape:connector-curvature="0"
         style="clip-rule:evenodd;fill:#2b2a29;fill-rule:nonzero;image-rendering:optimizeQuality;shape-rendering:geometricPrecision;text-rendering:geometricPrecision" /></g></g></svg>