<?xml version="1.0" encoding="UTF-8" standalone="no"?>
<!-- Creator: CorelDRAW 2017 -->

<svg
   xmlns:dc="http://purl.org/dc/elements/1.1/"
   xmlns:cc="http://creativecommons.org/ns#"
   xmlns:rdf="http://www.w3.org/1999/02/22-rdf-syntax-ns#"
   xmlns:svg="http://www.w3.org/2000/svg"
   xmlns="http://www.w3.org/2000/svg"
   xmlns:sodipodi="http://sodipodi.sourceforge.net/DTD/sodipodi-0.dtd"
   xmlns:inkscape="http://www.inkscape.org/namespaces/inkscape"
   xml:space="preserve"
   width="72.999992mm"
   height="162.92955mm"
   version="1.1"
   style="clip-rule:evenodd;fill-rule:evenodd;image-rendering:optimizeQuality;shape-rendering:geometricPrecision;text-rendering:geometricPrecision"
   viewBox="0 0 7299.9992 16292.955"
   id="svg2"
   inkscape:version="0.91 r13725"
   sodipodi:docname="brainlegionnaire.svg"><metadata
     id="metadata207"><rdf:RDF><cc:Work
         rdf:about=""><dc:format>image/svg+xml</dc:format><dc:type
           rdf:resource="http://purl.org/dc/dcmitype/StillImage" /><dc:title></dc:title></cc:Work></rdf:RDF></metadata><sodipodi:namedview
     pagecolor="#ffffff"
     bordercolor="#666666"
     borderopacity="1"
     objecttolerance="10"
     gridtolerance="10"
     guidetolerance="10"
     inkscape:pageopacity="0"
     inkscape:pageshadow="2"
     inkscape:window-width="1920"
     inkscape:window-height="1017"
     id="namedview205"
     showgrid="false"
     fit-margin-top="0"
     fit-margin-left="0"
     fit-margin-right="0"
     fit-margin-bottom="0"
     inkscape:zoom="0.28222222"
     inkscape:cx="-143.6251"
     inkscape:cy="271.07125"
     inkscape:window-x="0"
     inkscape:window-y="30"
     inkscape:window-maximized="1"
     inkscape:current-layer="svg2" /><defs
     id="defs4"><style
       type="text/css"
       id="style6"><![CDATA[
    .str0 {stroke:#FEFEFE;stroke-width:50;stroke-miterlimit:22.9256}
    .str2 {stroke:#FEFEFE;stroke-width:7.62;stroke-miterlimit:22.9256}
    .str1 {stroke:#FEFEFE;stroke-width:100;stroke-linecap:round;stroke-linejoin:round;stroke-miterlimit:22.9256}
    .fil4 {fill:none}
    .fil7 {fill:none;fill-rule:nonzero}
    .fil5 {fill:#FEFEFE}
    .fil0 {fill:#434242}
    .fil1 {fill:#594B97}
    .fil3 {fill:#D5D5D5}
    .fil2 {fill:#DDDDDD}
    .fil6 {fill:#FEFEFE;fill-rule:nonzero}
   ]]></style></defs><g
     id="Слой_x0020_1"
     transform="translate(-8853.42,-1857.2773)"><metadata
       id="CorelCorpID_0Corel-Layer" /><path
       class="fil0"
       d="m 11457.35,6270.11 c 61.35,277.71 86.94,647.36 -68.05,828.96 -24.69,230.02 -70.51,453.01 -158.62,627.3 137.22,2.1 381.97,-69.68 547.21,-92.33 210.71,-28.88 408.57,-47.47 630.56,-46.68 l 23.41,-167.75 53.9,161.8 105.23,-126.77 c -6.61,117.18 -91.43,166.41 142.14,138.77 110.48,-13.07 454.02,-292.36 555.03,-429.06 l 91.83,-39.09 c -18.57,-228.69 -13.12,-501.99 -122.46,-679.57 l -68.27,75.09 c -75.93,30.8 -92.09,-79.35 -54.62,84.02 l -37.76,65.17 c -77.74,-35.07 -52.76,-34.89 -28.56,45.92 l 0.08,67.24 c -13.8,143.22 3.74,-4.83 -56.66,38.11 l -104.77,140.59 c -197.35,47.14 -22.43,14.22 -82.89,-35.2 -4.32,-5.86 -10.99,-14.03 -13.17,-17.41 -81.44,-126.28 -40.49,-83.63 -101.57,-273.68 -43.82,-136.34 -7.77,-96.29 -438.09,-102.56 -23.4,207.03 -72.66,299.6 -177.52,432.45 l -53.7,-34.16 c -52.77,-38.03 -27.91,-5.33 -70.21,-54.69 -30.17,-35.22 -29.09,-42.74 -51.84,-89.54 -33.28,-23.15 -35.51,53.47 -67.96,-102.49 l -173.95,-5.2 c 133.75,-98.41 46.11,6.74 100.96,-122.12 l -36.57,-88.23 -128.69,-271.51 -154.42,72.62 z"
       id="path10"
       inkscape:connector-curvature="0"
       style="fill:#434242" /><path
       class="fil1"
       d="m 11379.13,6936.63 -95.24,51.23 c -96.16,-43.66 -103.17,-51.3 -116.5,-175.58 122.74,-61.13 184.2,0.47 211.74,124.35 z m -525.44,-442.5 c 78.95,69.95 16.54,-97.92 58.01,93.63 l -58.01,-93.63 z m 0,0 c -165.3,-204.86 -24.07,-262.37 -536.41,-93.07 l 221.06,100.57 -336.01,-39.95 c -122.32,120.46 -230.38,91.58 -464.4,437.5 -305.12,451.01 -678.82,1561.19 -619.57,1988.95 l 133.49,-101.56 c 78.05,-81.14 123.8,-107.95 217.09,-179.53 163.16,-125.19 83.9,-36.83 152.27,-254.96 l 36.98,-239.67 c -0.55,-124.91 -17.88,-110.93 44.88,-200.9 -9.45,-217.45 67.08,-715.1 303.8,-828.14 52.4,-103.19 57.11,-106.85 157.52,-178.45 86.57,-61.74 108.9,-68.95 218.36,-96.88 l 160.58,-52.1 6.87,-40.5 c -5.98,-5.54 -14.51,-12.67 -18.82,-15.6 l -69.46,-42.75 c -26.35,-15.6 -36.85,21.97 -58.19,-33.84 -6.04,-15.79 -21.27,-12.47 -31.39,-19.49 137.04,23.74 116.52,6.86 203.52,93.75 150.73,46.09 442.19,272.35 549.44,378.3 l 264,23.26 c 154.99,-181.6 129.4,-551.25 68.05,-828.96 -88.33,-182.16 -189.08,-210.2 -283.06,-10.44 4.85,3.08 14.09,0.82 15.57,7.36 3.62,16.06 47.61,-7.93 81.73,81.26 -17.35,-11.78 103.43,-64.08 -174.32,3.03 -90.32,21.82 -117.07,26.91 -211.65,29.58 l -31.93,113.23 z"
       id="path12"
       inkscape:connector-curvature="0"
       style="fill:#594b97" /><path
       class="fil0"
       d="m 13986.86,7743.83 0,0 z m 74.3,-701.84 c 159.43,-23.79 228.98,-44.08 325.72,76.78 l -325.72,-76.78 z m -448.09,159.33 c -78.42,163.98 -235.52,312.17 -397.29,392.89 51.96,43.99 -54.36,21.76 127.39,67.72 27.49,6.95 109.93,16.17 150.55,23.98 98.86,19.01 190.45,46.25 294.89,63.26 l 61.33,-145.17 44.51,175.9 92.41,-36.07 c -11.19,14.74 -8.63,45.32 -29.55,70.02 l 113.7,35.3 c 61.2,-153.64 225.97,-281.51 380.18,-434.17 l 188.32,-199.28 c 81.42,-85.39 57.12,-131.2 192.65,-181.77 -15.86,-81.09 37.2,-12.6 -53.54,-103.18 -0.92,-0.91 -74.29,-56.49 -81.93,-62.27 -76.47,-57.91 -111.46,-83.55 -171.76,-152.3 l -50.28,-0.45 c -162.08,34.07 -311.89,154.81 -444.69,245.45 -138.05,94.22 -285.18,185.16 -416.89,240.14 z"
       id="path14"
       inkscape:connector-curvature="0"
       style="fill:#434242" /><path
       class="fil1"
       d="m 13483.48,6976.39 c 71.91,-57.83 70.96,-61.97 196.27,-51.42 8.11,222.6 -162.99,260.16 -196.27,51.42 z m -225.95,-530.7 c 109.34,177.58 103.89,450.88 122.46,679.57 64.99,90.68 112.58,74.88 233.08,76.06 131.71,-54.98 278.84,-145.92 416.89,-240.14 132.8,-90.64 282.61,-211.38 444.69,-245.45 34.38,-28.35 -6.88,-29.98 99.85,-60.08 62.11,-17.51 45.85,-2.25 108.35,10.09 l -157.92,50.44 c 60.3,68.75 95.29,94.39 171.76,152.3 7.64,5.78 81.01,61.36 81.93,62.27 90.74,90.58 37.68,22.09 53.54,103.18 24.99,14.04 38.46,10.17 76.48,42.84 -27.58,-519.29 -3.49,-590.02 -518.87,-542.28 -103.35,102.81 -88.97,68.18 -163.22,92.94 l 66.6,-135.71 c -161.28,-24.65 -132.26,-211.83 -345.61,3.38 -4.28,4.32 -12.19,14.04 -18.63,20.74 39.09,-152.36 22.53,-192.68 -140.3,-216.62 l -90.35,213.47 -10.45,-247.97 c -122.9,-48.08 -233.97,-77.22 -389.71,-68.97 l -40.57,249.94 z"
       id="path16"
       inkscape:connector-curvature="0"
       style="fill:#594b97" /><path
       class="fil0"
       d="m 14071.01,7849.15 c 161.62,45.93 488.63,163.35 628.87,251.97 128.13,80.97 47.23,94.31 182.23,141.3 8.65,3.01 53.31,7.38 85.61,16.96 122.55,36.34 185.58,112.22 311.01,170.25 -19.17,-351.6 -103.54,-431.02 -350.05,-559.21 105.96,-35.08 40.85,25.11 157.47,-30 64.08,-305.78 -27.68,-580.08 -177.51,-763.65 -38.02,-32.67 -51.49,-28.8 -76.48,-42.84 -135.53,50.57 -111.23,96.38 -192.65,181.77 l -188.32,199.28 c -154.21,152.66 -318.98,280.53 -380.18,434.17 z"
       id="path18"
       inkscape:connector-curvature="0"
       style="fill:#434242" /><path
       class="fil0"
       d="m 9703.07,7911.51 68.14,158.48 20.42,104.64 c 130.22,-57.61 55.03,-13.78 148.41,-113.14 -65.92,184.25 -145.32,227.16 -170.78,247.13 l -45.82,30.87 c -8.81,126.16 -13.4,34.73 46.03,68.44 185.71,-198.87 833.77,-446.35 1145.56,-579.4 -37.82,-26.35 -82.07,-52.7 -141.95,-82.12 -122.53,-28.5 -176.08,-44.96 -258.28,-118.35 -60.8,-54.28 -112.81,-116.15 -174.51,-177.84 -105.5,-105.51 -273.56,-232.27 -333.42,-366.85 -236.72,113.04 -313.25,610.69 -303.8,828.14 z"
       id="path20"
       inkscape:connector-curvature="0"
       style="fill:#434242" /><path
       class="fil0"
       d="m 10804.6,7508.35 c -88.35,-44.63 -50.39,114.03 -109.82,-138.2 76.05,65.07 55.55,31.68 109.82,138.2 z m -254.4,-792.91 -6.87,40.5 66.25,33.1 c -2.97,1.44 -119.95,60.12 -122.15,60.45 -122.68,18.53 -39.78,50.06 -104.68,-41.45 -109.46,27.93 -131.79,35.14 -218.36,96.88 -100.41,71.6 -105.12,75.26 -157.52,178.45 59.86,134.58 227.92,261.34 333.42,366.85 61.7,61.69 113.71,123.56 174.51,177.84 82.2,73.39 135.75,89.85 258.28,118.35 169.73,1.75 51.8,10.61 89.74,-40.35 l -58.22,-197.71 c 57.77,61.06 35.03,85.69 141.6,179.35 75.4,-227.88 159.82,-272.45 179.1,-611.89 -107.25,-105.95 -398.71,-332.21 -549.44,-378.3 l -25.66,17.93 z"
       id="path22"
       inkscape:connector-curvature="0"
       style="fill:#434242" /><path
       class="fil1"
       d="m 15416.84,8538.6 c 129.74,-365.2 -277.6,-1442.18 -451.54,-1700.11 -38.48,308.82 183.32,440.51 193.11,866.38 8.05,350.67 13.17,176.51 114.98,420.13 66.93,160.14 23.49,327.57 143.45,413.6 z"
       id="path24"
       inkscape:connector-curvature="0"
       style="fill:#594b97" /><g
       id="_1624031452608"><path
         class="fil0 str0"
         d="m 12831.2,3293.46 c 206.18,67.96 160.96,86.92 215.23,173.7 l -215.23,-173.7 z m -359.59,-311.55 c 107.91,117.7 90.69,85.96 207.32,165.09 33.93,23 57.49,36.31 85.71,61.32 76.95,68.18 28.79,27.07 66.56,85.14 l -394.84,-213.48 -202.09,64.01 c -29.66,47.65 89.16,43 -140.51,100.75 -39.53,65.15 15.16,16.64 -91.45,110.16 -48,42.09 -48.88,29.62 -93.01,59.66 47.63,110.24 53.16,84.82 -52.5,36.89 -99.12,102.75 -162.96,130.89 -293.76,265.07 -18.05,94.82 28.58,52.27 -49.45,134.75 -96.73,102.21 -49.56,43.34 -144.02,58.81 -267.05,258.76 -247.88,347.52 -230.83,814.94 14.25,390.98 -12.56,640.74 -30.53,1002.6 244.46,220.51 250.38,231.35 287.81,623.96 l 153.38,301.77 c 8.39,8.47 22.92,8.77 25.75,24.84 2.75,15.72 19.96,20.54 23.39,26.01 42.98,68.67 17.68,18.19 46,92.64 57.91,36.96 28.69,-5.01 89.09,66.27 19.39,22.89 62.27,100.68 81.78,135.65 l 106.57,-23.02 c 245.2,-472.62 127.75,-1413.66 121.72,-2022.72 -160.39,-57.28 -355.64,-143.83 -502.34,-277.36 l 1.35,-292.02 571.42,166.87 c 456.15,159.61 -204.23,771.39 388.08,870.88 244.47,-314 -8.38,-472.82 106.5,-825.48 l 721.43,-213.39 -2.84,307.65 -491.61,281.8 c -45.83,257.51 -35.89,800.14 -36.4,1086.55 -1.48,855.99 73.25,586 113.79,933.74 226.1,-42.63 91.83,-39.92 262.73,-147.54 l 79.21,-147.49 c -33.88,-113.14 -68.85,-113.39 39.98,-64.29 l 52.87,-91.24 c -52.46,-228.72 -29.84,-74.51 76.47,-117.63 33.53,-152.15 84.26,-436.99 169.76,-542.22 247.8,-304.96 108.21,-204.94 130.48,-1255.59 9.52,-448.6 29.92,-357.56 -151.52,-636.37 l -387.3,-352.05 c -181.07,-163.47 -54.05,-24 -136.16,-186.64 573.09,327.45 442.57,548.72 532.4,335.68 -61.25,-276.42 -144.98,-468.33 -290.26,-657.85 -107.84,-140.68 -379.48,-384.63 -636.38,-379.51 l -183.75,232.39 z"
         id="path27"
         inkscape:connector-curvature="0"
         style="fill:#434242;stroke:#fefefe;stroke-width:50;stroke-miterlimit:22.92560005" /><g
         id="g29"><path
           class="fil1 str0"
           d="m 12032.01,1934.69 26.25,716.59 148.52,100.29 c 9.62,-10.17 24.8,-38.71 29.29,-30.1 4.44,8.54 22.36,-23.62 28.1,-30.69 5.64,-6.96 19.85,-23.89 25.98,-31.63 l 47.11,-64.9 c 288.14,-6.69 146.5,-44.51 318.1,155.27 l 129.92,-30.07 50.22,-789.47 -692.51,-39.26 58.88,208.67 -169.86,-164.7 z m 110.98,-43.97 -110.98,43.97 169.86,164.7 -58.88,-208.67 z"
           id="path31"
           inkscape:connector-curvature="0"
           style="fill:#594b97;stroke:#fefefe;stroke-width:50;stroke-miterlimit:22.92560005" /><path
           class="fil0 str0"
           d="m 12206.78,2751.57 c -233.31,-17.08 -526.27,239.63 -654.76,396.81 -156.45,191.38 -256.92,474.55 -292.2,780.67 50.05,-55.79 14.09,-6.82 109.75,-18.97 94.46,-15.47 47.29,43.4 144.02,-58.81 78.03,-82.48 31.4,-39.93 49.45,-134.75 10.9,-156.08 -60.15,-76.84 112.6,-199.04 120.69,-85.36 89.21,-49.35 181.16,-66.03 105.66,47.93 100.13,73.35 52.5,-36.89 27.63,-118.09 -16.27,-47.92 77.81,-129.1 108.58,-93.69 2.27,0.14 106.65,-40.72 30.86,-48.1 -86.39,-44.68 140.51,-100.75 l 242.27,-195.4 c 170.88,-332.98 -40.34,-309.75 -40.49,-309.82 -153.16,64.23 -38.85,-53.17 -117.2,207.95 l -41.72,96.55 c -58.99,-118.64 -27.8,-82.6 -70.35,-191.7 z"
           id="path33"
           inkscape:connector-curvature="0"
           style="fill:#434242;stroke:#fefefe;stroke-width:50;stroke-miterlimit:22.92560005" /></g></g><path
       class="fil2 str0"
       d="m 12831.2,3293.46 215.23,173.7 c -54.27,-86.78 -9.05,-105.74 -215.23,-173.7 z"
       id="path35"
       inkscape:connector-curvature="0"
       style="fill:#dddddd;stroke:#fefefe;stroke-width:50;stroke-miterlimit:22.92560005" /><polygon
       class="fil3 str0"
       points="13295,6632.94 13347.87,6541.7 "
       id="polygon37"
       style="fill:#d5d5d5;stroke:#fefefe;stroke-width:50;stroke-miterlimit:22.92560005" /><path
       class="fil0 str1"
       d="m 16103.42,17772.81 c -2395.94,436.59 -4795.94,436.59 -7200,0 l 0,-9839.46 c 2395.94,-436.59 4795.94,-436.59 7200,0 l 0,9839.46 z m -360,-491.97 c -2156.35,392.94 -4316.34,392.94 -6480,0 l 0,-8855.52 c 2156.35,-392.92 4316.34,-392.92 6480,0 l 0,8855.52 z"
       id="path39"
       inkscape:connector-curvature="0"
       style="fill:#434242;stroke:#fefefe;stroke-width:100;stroke-linecap:round;stroke-linejoin:round;stroke-miterlimit:22.92560005" /><path
       class="fil0 str1"
       d="m 15743.42,17280.84 c -2156.35,392.93 -4316.35,392.93 -6480,0 l 0,-8855.51 c 2156.35,-392.94 4316.35,-392.94 6480,0 l 0,8855.51 z"
       id="path41"
       inkscape:connector-curvature="0"
       style="fill:#434242;stroke:#fefefe;stroke-width:100;stroke-linecap:round;stroke-linejoin:round;stroke-miterlimit:22.92560005" /><line
       class="fil4 str1"
       x1="12492.48"
       y1="8130.6299"
       x2="12492.48"
       y2="8388.5098"
       id="line43"
       style="fill:none;stroke:#fefefe;stroke-width:100;stroke-linecap:round;stroke-linejoin:round;stroke-miterlimit:22.92560005" /><line
       class="fil4 str1"
       x1="14089.7"
       y1="8201.4502"
       x2="14089.7"
       y2="8459.3301"
       id="line45"
       style="fill:none;stroke:#fefefe;stroke-width:100;stroke-linecap:round;stroke-linejoin:round;stroke-miterlimit:22.92560005" /><line
       class="fil4 str1"
       x1="10895.25"
       y1="8201.4502"
       x2="10895.25"
       y2="8459.3301"
       id="line47"
       style="fill:none;stroke:#fefefe;stroke-width:100;stroke-linecap:round;stroke-linejoin:round;stroke-miterlimit:22.92560005" /><line
       class="fil4 str1"
       x1="12503.43"
       y1="17575.551"
       x2="12503.43"
       y2="17317.66"
       id="line49"
       style="fill:none;stroke:#fefefe;stroke-width:100;stroke-linecap:round;stroke-linejoin:round;stroke-miterlimit:22.92560005" /><line
       class="fil4 str1"
       x1="10906.21"
       y1="17504.73"
       x2="10906.21"
       y2="17246.84"
       id="line51"
       style="fill:none;stroke:#fefefe;stroke-width:100;stroke-linecap:round;stroke-linejoin:round;stroke-miterlimit:22.92560005" /><line
       class="fil4 str1"
       x1="14100.66"
       y1="17504.73"
       x2="14100.66"
       y2="17246.84"
       id="line53"
       style="fill:none;stroke:#fefefe;stroke-width:100;stroke-linecap:round;stroke-linejoin:round;stroke-miterlimit:22.92560005" /><polygon
       class="fil5 str1"
       points="9263.42,12853.09 9489.99,12853.09 "
       id="polygon55"
       style="fill:#fefefe;stroke:#fefefe;stroke-width:100;stroke-linecap:round;stroke-linejoin:round;stroke-miterlimit:22.92560005" /><line
       class="fil4 str1"
       x1="15516.85"
       y1="12853.09"
       x2="15743.42"
       y2="12853.09"
       id="line57"
       style="fill:none;stroke:#fefefe;stroke-width:100;stroke-linecap:round;stroke-linejoin:round;stroke-miterlimit:22.92560005" /><line
       class="fil4 str1"
       x1="9263.4199"
       y1="15066.96"
       x2="9489.9902"
       y2="15066.96"
       id="line59"
       style="fill:none;stroke:#fefefe;stroke-width:100;stroke-linecap:round;stroke-linejoin:round;stroke-miterlimit:22.92560005" /><line
       class="fil4 str1"
       x1="15516.85"
       y1="15066.96"
       x2="15743.42"
       y2="15066.96"
       id="line61"
       style="fill:none;stroke:#fefefe;stroke-width:100;stroke-linecap:round;stroke-linejoin:round;stroke-miterlimit:22.92560005" /><line
       class="fil4 str1"
       x1="9263.4199"
       y1="10639.21"
       x2="9489.9902"
       y2="10639.21"
       id="line63"
       style="fill:none;stroke:#fefefe;stroke-width:100;stroke-linecap:round;stroke-linejoin:round;stroke-miterlimit:22.92560005" /><line
       class="fil4 str1"
       x1="15516.85"
       y1="10639.21"
       x2="15743.42"
       y2="10639.21"
       id="line65"
       style="fill:none;stroke:#fefefe;stroke-width:100;stroke-linecap:round;stroke-linejoin:round;stroke-miterlimit:22.92560005" /><g
       id="_1625280402768"><path
         class="fil5 str0"
         d="m 13288.99,9870.77 c 140.1,78.7 199.89,83.56 380.13,202.27 240.95,158.71 301.87,228.72 478.22,408.24 l 70.38,80.3 c 48.77,53.76 157.49,199.76 191.94,257.49 134.15,224.73 195.74,299.32 308.76,610.87 259.06,714.14 269.02,1437.98 45.4,2173.53 -79.37,261.06 -249.69,608.17 -405.96,817.34 l -65.24,86.52 c -53.39,75.47 -115.83,137.96 -172.66,204.44 l -188.98,179 c -348.43,286.98 -537.17,374.18 -960.93,476.82 l -464.54,95.21 -469.36,-95.06 c -142.21,-32.47 -304.93,-74.42 -433.29,-133.52 -129.9,-59.82 -253.75,-134.31 -365.79,-214.28 -106.5,-76 -224.84,-178.32 -315.66,-273.7 -48.65,-51.1 -170.16,-182.62 -210.77,-241.41 -70.7,-102.36 -109.55,-145.58 -183.02,-268.09 -195.19,-325.47 -343.06,-730.12 -402.93,-1130.66 -59.21,-396.09 -56.73,-796.13 23.38,-1179.69 66.45,-318.17 175.44,-640.51 328,-910.16 46.61,-82.38 208.64,-340.69 272.91,-407.45 80.76,-83.87 111.89,-151.22 249.98,-270.15 144.3,-124.28 163.16,-149.44 328.39,-258.84 58.91,-39.01 118.65,-74.79 183.09,-109.89 l 191.34,-93.76 c -87.15,15.09 -271,124.83 -348.12,171.55 -52.16,31.6 -107.03,67.7 -156.9,103.95 -175.14,127.29 -328.48,284.69 -468.35,458.11 l -169.59,233.45 c -135.41,216.67 -257.34,453 -347.91,753.89 -214.42,712.4 -200.93,1479.43 57.49,2165.1 113.8,301.93 192.32,421.26 341.94,660.14 20.65,32.97 46.71,61.46 69.45,93.8 202.66,288.17 486.31,516.32 768.82,681.33 446.87,261 855.04,253.2 941.66,296.67 -127.6,34.84 -254.59,89.26 -366.88,145.59 -70.79,35.52 -275.76,149.26 -315.56,194.78 114.94,5.3 87.73,-11.16 202.79,-76.46 125.21,-71.07 479.91,-242.93 594.71,-239.73 127.82,3.56 458.18,166.1 593.68,242.28 133.29,74.94 75.24,70.97 198.58,73.78 -204.53,-152.1 -443.78,-276.45 -681.99,-339.73 42.62,-23.67 196.61,-33.99 258.59,-52.28 61.21,-18.06 163.05,-31.64 239.2,-55.08 359.59,-110.71 714.8,-322.64 988.06,-608.9 15.99,-16.75 20.73,-19.1 39.57,-41.11 13.49,-15.78 25.82,-25.59 40.13,-40.85 l 113.62,-135.82 c 12.64,-16.92 21.43,-31.97 33.98,-48.16 65.31,-84.24 142.71,-204.9 195.97,-296.93 268,-463.14 420.28,-1036.6 420.77,-1634.14 0.29,-346.2 -57.1,-692.11 -150.35,-983.87 -93.4,-292.24 -193.2,-514.6 -350.59,-756.79 l -232.75,-310 c -97.72,-121.4 -288.61,-298.47 -416.36,-387.71 -112.64,-78.69 -394.43,-260.17 -506.45,-272.23 z"
         id="path68"
         inkscape:connector-curvature="0"
         style="fill:#fefefe;stroke:#fefefe;stroke-width:50;stroke-miterlimit:22.92560005" /><path
         class="fil5 str0"
         d="m 10040.09,12207.89 c 41.68,-76.02 20.56,-235.36 -7.97,-318.91 -29.22,-85.55 -92.42,-182.79 -140.32,-220.43 -56.94,115.3 9.59,568.49 148.29,539.34 z"
         id="path70"
         inkscape:connector-curvature="0"
         style="fill:#fefefe;stroke:#fefefe;stroke-width:50;stroke-miterlimit:22.92560005" /><path
         class="fil5 str0"
         d="m 14816.54,13677.95 c 124.37,63.99 324.67,-222.36 346.24,-395.65 -96.34,16.62 -180.8,76.63 -233.98,132.79 -31.47,33.23 -131.01,175.21 -112.26,262.86 z"
         id="path72"
         inkscape:connector-curvature="0"
         style="fill:#fefefe;stroke:#fefefe;stroke-width:50;stroke-miterlimit:22.92560005" /><path
         class="fil5 str0"
         d="m 13235.1,9484.51 c 15.59,349.7 444,622.36 293.15,269.69 -50.04,-117.02 -201.54,-249.4 -293.15,-269.69 z"
         id="path74"
         inkscape:connector-curvature="0"
         style="fill:#fefefe;stroke:#fefefe;stroke-width:50;stroke-miterlimit:22.92560005" /><path
         class="fil5 str0"
         d="m 14813.93,14285.36 c -142.07,-37.32 -278.38,31.29 -378.24,133.66 -14.52,14.89 -79.63,85.64 -37.34,117.78 66.62,50.65 207.19,-22.83 255.13,-59.78 50.61,-39 98.17,-82.49 134.95,-136.04 5.68,-8.27 12.53,-17.75 18.89,-28.54 0.03,-0.05 6.22,-13.24 6.65,-15.06 0.21,-0.86 0.26,-3.25 0.38,-3.95 l -0.42,-8.07 z"
         id="path76"
         inkscape:connector-curvature="0"
         style="fill:#fefefe;stroke:#fefefe;stroke-width:50;stroke-miterlimit:22.92560005" /><path
         class="fil5 str0"
         d="m 15224.79,12744.84 c -91.99,13.13 -225.17,163.67 -267.22,287.39 -52.42,154.29 -40.12,235.98 96.27,121.61 90.54,-75.92 164.63,-270.05 170.95,-409 z"
         id="path78"
         inkscape:connector-curvature="0"
         style="fill:#fefefe;stroke:#fefefe;stroke-width:50;stroke-miterlimit:22.92560005" /><path
         class="fil5 str0"
         d="m 9842.89,13282.01 c 17.68,130.67 113.7,288.58 212.12,362.34 21.57,16.17 102.25,65.08 130.45,33.47 39.64,-44.44 -85.05,-350.3 -342.57,-395.81 z"
         id="path80"
         inkscape:connector-curvature="0"
         style="fill:#fefefe;stroke:#fefefe;stroke-width:50;stroke-miterlimit:22.92560005" /><path
         class="fil5 str0"
         d="m 14632.68,14126.05 c 137.66,79.96 363.17,-192.83 394.49,-324.63 -105.83,4.82 -191.55,37.12 -261.37,95.4 -40.83,34.08 -150.34,146.52 -133.12,229.23 z"
         id="path82"
         inkscape:connector-curvature="0"
         style="fill:#fefefe;stroke:#fefefe;stroke-width:50;stroke-miterlimit:22.92560005" /><path
         class="fil5 str0"
         d="m 11168.13,15400.05 c 58.35,41.32 180.75,73.3 263.66,70.04 145.07,-5.69 339.06,-132.78 96.88,-185.27 -125.96,-27.3 -286.53,22.45 -360.54,115.23 z"
         id="path84"
         inkscape:connector-curvature="0"
         style="fill:#fefefe;stroke:#fefefe;stroke-width:50;stroke-miterlimit:22.92560005" /><path
         class="fil5 str0"
         d="m 10066.8,13201.73 c 53.44,-120.46 -120.02,-411.01 -285.9,-458.58 8.07,191.61 155.43,493.7 285.9,458.58 z"
         id="path86"
         inkscape:connector-curvature="0"
         style="fill:#fefefe;stroke:#fefefe;stroke-width:50;stroke-miterlimit:22.92560005" /><path
         class="fil5 str0"
         d="m 9796.78,12199.67 c -19.71,339.83 171.74,555.83 222.53,503.23 50.12,-51.9 -29.38,-268.68 -49.77,-309.1 -30.25,-59.97 -113.73,-167.73 -172.76,-194.13 z"
         id="path88"
         inkscape:connector-curvature="0"
         style="fill:#fefefe;stroke:#fefefe;stroke-width:50;stroke-miterlimit:22.92560005" /><path
         class="fil5 str0"
         d="m 15209.14,12201.4 c -48.44,13.6 -140.97,127.49 -172.46,191.96 -21.75,44.53 -95.84,247.3 -52.47,306.24 48.15,65.43 244.79,-159.05 224.93,-498.2 z"
         id="path90"
         inkscape:connector-curvature="0"
         style="fill:#fefefe;stroke:#fefefe;stroke-width:50;stroke-miterlimit:22.92560005" /><path
         class="fil5 str0"
         d="m 13663.19,9671.09 c -1.28,125.27 23.04,234.97 69.43,319.65 26.69,48.72 143.07,209.52 186.2,157.09 52.31,-63.6 -44.79,-256.84 -67.19,-292.86 -28.17,-45.28 -129.83,-162.7 -188.44,-183.88 z"
         id="path92"
         inkscape:connector-curvature="0"
         style="fill:#fefefe;stroke:#fefefe;stroke-width:50;stroke-miterlimit:22.92560005" /><path
         class="fil5 str0"
         d="m 10262.73,14394.89 c 77.35,91.28 273.9,213.52 347.94,138.8 52.44,-52.92 -102.92,-176.3 -142.98,-199.98 -87.72,-51.87 -170.38,-62.09 -278.58,-49.39 2.45,34.43 52.17,85.26 73.62,110.57 z"
         id="path94"
         inkscape:connector-curvature="0"
         style="fill:#fefefe;stroke:#fefefe;stroke-width:50;stroke-miterlimit:22.92560005" /><path
         class="fil5 str0"
         d="m 14965.54,12208.47 c 62.99,10.43 103.8,-82.74 127.71,-139.66 35.63,-84.83 55.57,-322.56 21.43,-399.84 -44.63,27.74 -111.9,137.61 -139.04,215.37 -29.11,83.43 -52.35,250.99 -10.1,324.13 z"
         id="path96"
         inkscape:connector-curvature="0"
         style="fill:#fefefe;stroke:#fefefe;stroke-width:50;stroke-miterlimit:22.92560005" /><path
         class="fil5 str0"
         d="m 13837.87,15399.33 c -198.77,-197.34 -463.4,-109.9 -473.84,-53.5 -19.38,104.78 290.48,185.4 473.84,53.5 z"
         id="path98"
         inkscape:connector-curvature="0"
         style="fill:#fefefe;stroke:#fefefe;stroke-width:50;stroke-miterlimit:22.92560005" /><path
         class="fil5 str0"
         d="m 11770.13,9485.29 c -74.92,19.76 -170.93,103.75 -216.52,150.46 -92.9,95.18 -197.24,404.16 21.26,233.99 101.8,-79.29 195.39,-247.64 195.26,-384.45 z"
         id="path100"
         inkscape:connector-curvature="0"
         style="fill:#fefefe;stroke:#fefefe;stroke-width:50;stroke-miterlimit:22.92560005" /><path
         class="fil5 str0"
         d="m 14237.24,10468.98 c 58.32,-75.99 15.01,-232.44 -19.64,-311.59 -27.68,-63.2 -111.07,-189.23 -155.96,-216.99 -34.53,64.98 -2.74,264.18 20.63,327.99 24.73,67.57 94.88,200.92 154.97,200.59 z"
         id="path102"
         inkscape:connector-curvature="0"
         style="fill:#fefefe;stroke:#fefefe;stroke-width:50;stroke-miterlimit:22.92560005" /><path
         class="fil5 str0"
         d="m 12961.07,15469.19 c -2.77,49.88 21.46,73.77 67.39,110.11 106.03,83.92 276.76,85.34 392.74,44.01 -22.25,-50.71 -122.42,-129.61 -190.84,-159.02 -81.2,-34.9 -202.92,-46.55 -269.29,4.9 z"
         id="path104"
         inkscape:connector-curvature="0"
         style="fill:#fefefe;stroke:#fefefe;stroke-width:50;stroke-miterlimit:22.92560005" /><path
         class="fil5 str0"
         d="m 10328.4,13994.22 c -92.39,-126.66 -192.25,-184.97 -349.32,-192.82 5.44,33.18 50.36,107.67 64.19,128.77 171.82,262.27 442.09,279.26 285.13,64.05 z"
         id="path106"
         inkscape:connector-curvature="0"
         style="fill:#fefefe;stroke:#fefefe;stroke-width:50;stroke-miterlimit:22.92560005" /><path
         class="fil5 str0"
         d="m 11584.57,15623.59 c 116.23,37.37 293.81,41.63 396.37,-47.08 193.57,-167.42 -96.09,-159.26 -209.42,-110.93 -64.88,27.67 -168.9,110.1 -186.95,158.01 z"
         id="path108"
         inkscape:connector-curvature="0"
         style="fill:#fefefe;stroke:#fefefe;stroke-width:50;stroke-miterlimit:22.92560005" /><path
         class="fil5 str0"
         d="m 10597.02,10285.45 c -39.99,19.56 -103.52,165.82 -125.67,238.42 -21.54,70.58 -44.88,274.54 14.01,312.1 55.21,35.22 117.08,-154.43 130.29,-215.64 29.02,-134.46 5.41,-215.8 -18.63,-334.88 z"
         id="path110"
         inkscape:connector-curvature="0"
         style="fill:#fefefe;stroke:#fefefe;stroke-width:50;stroke-miterlimit:22.92560005" /><path
         class="fil5 str0"
         d="m 10293.97,10697.81 c -56.21,65.59 -110.93,302.19 -81.76,445.31 51.96,254.91 149.28,45.57 153.39,-148.47 1.84,-87.16 -31.99,-256.86 -71.63,-296.84 z"
         id="path112"
         inkscape:connector-curvature="0"
         style="fill:#fefefe;stroke:#fefefe;stroke-width:50;stroke-miterlimit:22.92560005" /><path
         class="fil5 str0"
         d="m 14087.3,14879.24 c 77.83,53.26 174.77,40.21 263.53,0.97 55.89,-24.71 176.09,-115.82 194.34,-155.81 -1.18,-0.97 -2.82,-2.08 -3.69,-2.63 -33.79,-21.14 -94.53,-29.47 -130.55,-31.73 -114.41,-7.18 -333.13,73.94 -323.63,189.2 z"
         id="path114"
         inkscape:connector-curvature="0"
         style="fill:#fefefe;stroke:#fefefe;stroke-width:50;stroke-miterlimit:22.92560005" /><path
         class="fil5 str0"
         d="m 14409.93,10285.3 c -25.68,113.3 -48.6,204.45 -19.86,335.82 14.09,64.42 76.06,248.52 130.93,214.62 58.35,-36.06 34.71,-241.59 13.61,-311.17 -21.84,-71.98 -87.07,-217.41 -124.68,-239.27 z"
         id="path116"
         inkscape:connector-curvature="0"
         style="fill:#fefefe;stroke:#fefefe;stroke-width:50;stroke-miterlimit:22.92560005" /><path
         class="fil5 str0"
         d="m 11342.9,9670.52 c -60,22.55 -154.67,134.17 -185.67,180.72 -95.67,143.68 -136.55,428.7 33.79,249.16 107.34,-113.14 151.99,-241.22 151.88,-429.88 z"
         id="path118"
         inkscape:connector-curvature="0"
         style="fill:#fefefe;stroke:#fefefe;stroke-width:50;stroke-miterlimit:22.92560005" /><path
         class="fil5 str0"
         d="m 14948.36,11161.48 c -160.63,200.31 -125.83,523.19 -73.18,556.52 72.6,45.96 183.41,-263.45 73.18,-556.52 z"
         id="path120"
         inkscape:connector-curvature="0"
         style="fill:#fefefe;stroke:#fefefe;stroke-width:50;stroke-miterlimit:22.92560005" /><path
         class="fil5 str0"
         d="m 10948.12,9940.83 c -37.72,8.5 -130.43,151.91 -153.98,203.74 -25.84,56.84 -86.72,249.32 -35.12,313.65 40.41,50.37 235.57,-155.84 189.1,-517.39 z"
         id="path122"
         inkscape:connector-curvature="0"
         style="fill:#fefefe;stroke:#fefefe;stroke-width:50;stroke-miterlimit:22.92560005" /><path
         class="fil5 str0"
         d="m 10460.91,14724.4 c 23.88,21.8 26.31,39.6 91.2,89.91 99.05,76.8 263.25,149.15 365.98,63.28 11.48,-103.79 -219.98,-235.19 -429.72,-167.54 -9.31,3.01 -8.73,2.58 -16.12,6.48 -15.59,8.22 -4.71,2.19 -11.34,7.87 z"
         id="path124"
         inkscape:connector-curvature="0"
         style="fill:#fefefe;stroke:#fefefe;stroke-width:50;stroke-miterlimit:22.92560005" /><path
         class="fil5 str0"
         d="m 10060.08,11161.45 c -34.63,55.91 -53.45,236.26 -47.99,320.2 4.75,72.86 51.22,267.15 115.83,238.94 49.79,-21.73 51.78,-233.64 38.28,-307.74 -20.92,-114.95 -54.72,-168.81 -106.12,-251.4 z"
         id="path126"
         inkscape:connector-curvature="0"
         style="fill:#fefefe;stroke:#fefefe;stroke-width:50;stroke-miterlimit:22.92560005" /><path
         class="fil5 str0"
         d="m 10791.75,15097.38 c 26.2,41.34 160.34,101.36 220.47,116.03 77.43,18.91 236.43,5.62 250.01,-60.85 14.27,-69.84 -152.18,-118.8 -211.34,-124.94 -80.7,-8.37 -208.13,20.86 -259.14,69.76 z"
         id="path128"
         inkscape:connector-curvature="0"
         style="fill:#fefefe;stroke:#fefefe;stroke-width:50;stroke-miterlimit:22.92560005" /><path
         class="fil5 str0"
         d="m 14214.03,15097.38 c -49.74,-49.24 -179.63,-77.54 -258.38,-69.96 -59.9,5.77 -226.51,55.58 -211.83,125.4 13.9,66.09 173.48,79.16 250.72,60.42 57.86,-14.03 193.63,-75.42 219.49,-115.86 z"
         id="path130"
         inkscape:connector-curvature="0"
         style="fill:#fefefe;stroke:#fefefe;stroke-width:50;stroke-miterlimit:22.92560005" /><path
         class="fil5 str0"
         d="m 14712.51,10698.08 c -3.13,3.16 -3,2.22 -7.66,9.38 l -22,49.43 c -88.51,242.46 -14.58,499.89 46.01,504.07 66.23,4.56 78.9,-211.84 69.73,-288.11 -9.81,-81.67 -48.23,-223.43 -86.08,-274.77 z"
         id="path132"
         inkscape:connector-curvature="0"
         style="fill:#fefefe;stroke:#fefefe;stroke-width:50;stroke-miterlimit:22.92560005" /><path
         class="fil5 str0"
         d="m 14641.31,12452.25 c -10.51,142.39 170.02,516 234.3,425.36 45.32,-63.92 -5.97,-376.71 -234.3,-425.36 z"
         id="path134"
         inkscape:connector-curvature="0"
         style="fill:#fefefe;stroke:#fefefe;stroke-width:50;stroke-miterlimit:22.92560005" /><path
         class="fil5 str0"
         d="m 10685.25,11247.5 c -58.64,-45.41 -195.32,-8.3 -247.41,26.41 -50.74,33.8 -145.35,149.51 -128.17,212.38 25.95,95.04 313.64,-94.27 375.58,-238.79 z"
         id="path136"
         inkscape:connector-curvature="0"
         style="fill:#fefefe;stroke:#fefefe;stroke-width:50;stroke-miterlimit:22.92560005" /><path
         class="fil5 str0"
         d="m 14590.95,12030.16 c 17.56,148.63 226.14,452.27 288.76,378.1 39.17,-46.4 -28.09,-364.12 -288.76,-378.1 z"
         id="path138"
         inkscape:connector-curvature="0"
         style="fill:#fefefe;stroke:#fefefe;stroke-width:50;stroke-miterlimit:22.92560005" /><path
         class="fil5 str0"
         d="m 14014.01,14383.8 c -32,24.18 -96.68,160.87 -116.13,220.75 -76.13,234.35 -16.51,363 96.17,184.58 79.79,-126.34 75.47,-312.99 19.96,-405.33 z"
         id="path140"
         inkscape:connector-curvature="0"
         style="fill:#fefefe;stroke:#fefefe;stroke-width:50;stroke-miterlimit:22.92560005" /><path
         class="fil5 str0"
         d="m 10414.94,12031.04 c -88.69,-0.13 -177.71,59.62 -217.73,112.33 -22.19,29.22 -44.11,64.5 -59.78,112.04 -82.37,249.88 75.86,170.97 171.2,21.06 29.75,-46.77 96.63,-175.98 106.31,-245.43 z"
         id="path142"
         inkscape:connector-curvature="0"
         style="fill:#fefefe;stroke:#fefefe;stroke-width:50;stroke-miterlimit:22.92560005" /><path
         class="fil5 str0"
         d="m 10365.8,12452.39 c -114.85,23.12 -211.09,133.84 -239.01,264.54 -8.49,39.72 -18.17,133.21 3.16,161.7 58.54,78.2 225.83,-224.83 235.85,-426.24 z"
         id="path144"
         inkscape:connector-curvature="0"
         style="fill:#fefefe;stroke:#fefefe;stroke-width:50;stroke-miterlimit:22.92560005" /><path
         class="fil5 str0"
         d="m 14320.61,11247.5 c 12.29,32.13 45.36,67.28 68.65,95.15 24.96,29.86 52.06,55.37 84.33,82.72 82.17,69.64 323.57,176.29 179.95,-63.25 -75.25,-125.5 -265.62,-165.14 -332.93,-114.62 z"
         id="path146"
         inkscape:connector-curvature="0"
         style="fill:#fefefe;stroke:#fefefe;stroke-width:50;stroke-miterlimit:22.92560005" /><path
         class="fil5 str0"
         d="m 10377.92,12879.01 c -187,90.92 -238.04,339.56 -182.24,451.72 52.08,104.67 195.9,-185.59 182.24,-451.72 z"
         id="path148"
         inkscape:connector-curvature="0"
         style="fill:#fefefe;stroke:#fefefe;stroke-width:50;stroke-miterlimit:22.92560005" /><path
         class="fil5 str0"
         d="m 12785.64,15371.62 c 96.61,51.23 303.94,-85.48 309.87,-357.94 -99.23,23.58 -340.38,230.22 -309.87,357.94 z"
         id="path150"
         inkscape:connector-curvature="0"
         style="fill:#fefefe;stroke:#fefefe;stroke-width:50;stroke-miterlimit:22.92560005" /><path
         class="fil5 str0"
         d="m 10901.29,10904.92 c -58.6,-45.11 -181.31,-50.89 -253.43,-18.7 -55.68,24.86 -156.5,114.96 -151.68,177.44 6.44,83.51 192.56,6.41 226.98,-11.41 49.79,-25.77 159.59,-108.31 178.13,-147.33 z"
         id="path152"
         inkscape:connector-curvature="0"
         style="fill:#fefefe;stroke:#fefefe;stroke-width:50;stroke-miterlimit:22.92560005" /><path
         class="fil5 str0"
         d="m 14558.6,13295.96 c -20.64,75.29 -15.88,236.21 -0.26,316.47 93.59,480.89 288.72,-120.01 0.26,-316.47 z"
         id="path154"
         inkscape:connector-curvature="0"
         style="fill:#fefefe;stroke:#fefefe;stroke-width:50;stroke-miterlimit:22.92560005" /><path
         class="fil5 str0"
         d="m 10344.98,13794.83 c 45.11,2.59 57.79,-34.92 73.68,-78.26 43.95,-119.93 57.73,-301.07 29.01,-419.99 -52.16,26.29 -118.07,129.84 -139.14,206.27 -26.29,95.37 -18.16,210.82 36.45,291.98 z"
         id="path156"
         inkscape:connector-curvature="0"
         style="fill:#fefefe;stroke:#fefefe;stroke-width:50;stroke-miterlimit:22.92560005" /><path
         class="fil5 str0"
         d="m 11161.01,10616.66 c -35.11,-52.83 -155.13,-87.17 -230.64,-75.52 -43.27,6.68 -80.19,24.23 -110.24,45.43 -22.84,16.11 -67.45,59.16 -76.68,85.89 -32.97,95.54 166.8,66.64 213.58,52.51 73.28,-22.14 153.07,-65.42 203.98,-108.31 z"
         id="path158"
         inkscape:connector-curvature="0"
         style="fill:#fefefe;stroke:#fefefe;stroke-width:50;stroke-miterlimit:22.92560005" /><path
         class="fil5 str0"
         d="m 10992.47,14383.84 c -39.55,51.63 -49.76,213.8 -29.37,293.37 17.85,69.66 85.32,187.69 135.89,194.32 99.21,13 12.26,-357.3 -106.52,-487.69 z"
         id="path160"
         inkscape:connector-curvature="0"
         style="fill:#fefefe;stroke:#fefefe;stroke-width:50;stroke-miterlimit:22.92560005" /><path
         class="fil5 str0"
         d="m 14627.39,12877.64 c 1.29,110.69 10.55,212 42.59,304.54 16.42,47.44 98.48,238.69 140.69,148.58 36.93,-78.86 12.26,-218.7 -20.24,-286.02 -34.36,-71.16 -102.45,-143.5 -163.04,-167.1 z"
         id="path162"
         inkscape:connector-curvature="0"
         style="fill:#fefefe;stroke:#fefefe;stroke-width:50;stroke-miterlimit:22.92560005" /><path
         class="fil5 str0"
         d="m 10759.63,14060.09 c -45.15,54.15 -77.97,165.2 -72.6,264.68 4.84,89.67 53.01,196.24 96.91,231.83 83.26,67.51 67.53,-194.3 58.9,-247.64 -10.64,-65.79 -53.58,-214.6 -83.21,-248.87 z"
         id="path164"
         inkscape:connector-curvature="0"
         style="fill:#fefefe;stroke:#fefefe;stroke-width:50;stroke-miterlimit:22.92560005" /><path
         class="fil5 str0"
         d="m 11909.78,15014.03 c 6.99,115.88 42.23,209.83 90.55,270.12 33.01,41.19 150.5,128.53 220.68,86.82 24.07,-136.86 -218.11,-336.35 -311.23,-356.94 z"
         id="path166"
         inkscape:connector-curvature="0"
         style="fill:#fefefe;stroke:#fefefe;stroke-width:50;stroke-miterlimit:22.92560005" /><path
         class="fil5 str0"
         d="m 14105.09,10906.14 c 17.68,37.6 128,119.69 178.13,146.07 34.87,18.36 219.02,94.66 226.28,11.17 5.57,-64.13 -101.06,-153.75 -151.25,-176.54 -75.44,-34.25 -192.25,-26.69 -253.16,19.3 z"
         id="path168"
         inkscape:connector-curvature="0"
         style="fill:#fefefe;stroke:#fefefe;stroke-width:50;stroke-miterlimit:22.92560005" /><path
         class="fil5 str0"
         d="m 14820.05,11945.52 c 21.06,-94.33 -59.36,-210.5 -96.23,-243.99 -68.65,-62.35 -132.19,-81.5 -237.75,-78.66 0.3,40.44 109.62,197.27 127.87,216.44 45.25,47.52 147.04,136.15 206.11,106.21 z"
         id="path170"
         inkscape:connector-curvature="0"
         style="fill:#fefefe;stroke:#fefefe;stroke-width:50;stroke-miterlimit:22.92560005" /><path
         class="fil5 str0"
         d="m 11266.22,14655.16 c -30.18,98.95 -19.35,220.87 19.43,306.87 17.45,38.71 111.17,177.33 168.88,149.96 60.29,-28.59 -28.39,-234 -44.92,-266.33 -27.49,-53.78 -105.75,-170.53 -143.39,-190.5 z"
         id="path172"
         inkscape:connector-curvature="0"
         style="fill:#fefefe;stroke:#fefefe;stroke-width:50;stroke-miterlimit:22.92560005" /><path
         class="fil5 str0"
         d="m 10574.42,13695.55 c -39.34,34.61 -92.01,137.11 -104.08,221.56 -13.89,97.22 14.98,228.38 59.54,272.95 67.39,67.4 91.86,-137.26 92.42,-205.2 0.52,-62.61 -17.83,-259.61 -47.88,-289.31 z"
         id="path174"
         inkscape:connector-curvature="0"
         style="fill:#fefefe;stroke:#fefefe;stroke-width:50;stroke-miterlimit:22.92560005" /><path
         class="fil5 str0"
         d="m 11459.88,10382.85 c -34.36,-81.4 -272.93,-204.03 -412.19,-42.88 -73.51,85.07 118.81,109.44 172.34,107.59 107.56,-3.72 153.9,-36.28 239.85,-64.71 z"
         id="path176"
         inkscape:connector-curvature="0"
         style="fill:#fefefe;stroke:#fefefe;stroke-width:50;stroke-miterlimit:22.92560005" /><path
         class="fil5 str0"
         d="m 13545.88,10382.8 c 74.3,28.33 143.54,60.21 235.27,64.58 51.6,2.45 248.43,-21.18 177.94,-107.63 -115.21,-141.33 -356.45,-67.49 -413.21,43.05 z"
         id="path178"
         inkscape:connector-curvature="0"
         style="fill:#fefefe;stroke:#fefefe;stroke-width:50;stroke-miterlimit:22.92560005" /><path
         class="fil5 str0"
         d="m 13220.03,10210.29 c 87.91,19.54 172.52,32.84 264.4,12.08 53.26,-12.03 221.81,-75.31 133.86,-139.54 -156.34,-114.19 -362.73,22.41 -398.26,127.46 z"
         id="path180"
         inkscape:connector-curvature="0"
         style="fill:#fefefe;stroke:#fefefe;stroke-width:50;stroke-miterlimit:22.92560005" /><path
         class="fil5 str0"
         d="m 10519.73,11623.23 c -293.46,-17.81 -365.59,284.67 -328.57,322.59 44.4,45.48 183.42,-89.23 200.49,-107.48 19.19,-20.54 127.58,-172.96 128.08,-215.11 z"
         id="path182"
         inkscape:connector-curvature="0"
         style="fill:#fefefe;stroke:#fefefe;stroke-width:50;stroke-miterlimit:22.92560005" /><path
         class="fil5 str0"
         d="m 13843.87,10616.68 c 31.19,21.18 56.04,41.01 96.31,61.65 35.87,18.38 69.02,34.75 109.16,46.46 48.22,14.05 244.59,43.18 213.14,-51.67 -19.64,-59.19 -117.78,-121.14 -186.53,-131.8 -46.07,-7.13 -90.31,0.74 -132.9,14.58 -22.33,7.25 -69.19,28.95 -87.66,47.14 l -8.7,10 c -0.64,0.77 -1.91,2.4 -2.82,3.64 z"
         id="path184"
         inkscape:connector-curvature="0"
         style="fill:#fefefe;stroke:#fefefe;stroke-width:50;stroke-miterlimit:22.92560005" /><path
         class="fil5 str0"
         d="m 14187.68,14565.22 c 69.98,2.87 122.16,-151.41 129.71,-223.31 9.9,-94.24 -28.04,-232.16 -70.54,-281.79 -15.73,15.19 -18.31,27.95 -26.38,51.37 -40.22,116.75 -115,345.01 -32.79,453.73 z"
         id="path186"
         inkscape:connector-curvature="0"
         style="fill:#fefefe;stroke:#fefefe;stroke-width:50;stroke-miterlimit:22.92560005" /><path
         class="fil5 str0"
         d="m 11574.55,14867.2 c -4.88,127.18 9.49,217.71 61.19,296.06 30.73,46.58 113.36,140.96 194.3,118.81 49.59,-133.87 -183.25,-389.23 -255.49,-414.87 z"
         id="path188"
         inkscape:connector-curvature="0"
         style="fill:#fefefe;stroke:#fefefe;stroke-width:50;stroke-miterlimit:22.92560005" /><path
         class="fil5 str0"
         d="m 14433.53,13693.53 c -21.32,23.67 -30.13,95.01 -36.85,135.45 -8.49,51.16 -13.75,101.88 -13.18,155.86 0.71,67.33 26.29,276.52 92.62,204.59 44.26,-47.98 74.03,-172.72 59.27,-271.61 -15.1,-101.18 -62.97,-172.85 -101.86,-224.29 z"
         id="path190"
         inkscape:connector-curvature="0"
         style="fill:#fefefe;stroke:#fefefe;stroke-width:50;stroke-miterlimit:22.92560005" /><path
         class="fil5 str0"
         d="m 13740.09,14654.59 c -38.45,20.35 -117.46,139.42 -145.72,194.26 -17.08,33.15 -103.08,237.82 -42.84,263.93 51.76,22.44 261.71,-139.21 188.56,-458.19 z"
         id="path192"
         inkscape:connector-curvature="0"
         style="fill:#fefefe;stroke:#fefefe;stroke-width:50;stroke-miterlimit:22.92560005" /><path
         class="fil5 str0"
         d="m 13175.91,15281.8 c 80.5,23.81 165.42,-73.85 196.57,-122.71 47.27,-74.16 64.33,-173.98 58.84,-290.83 -68.09,17.05 -304.76,280.84 -255.41,413.54 z"
         id="path194"
         inkscape:connector-curvature="0"
         style="fill:#fefefe;stroke:#fefefe;stroke-width:50;stroke-miterlimit:22.92560005" /><path
         class="fil5 str0"
         d="m 11786.01,10203.05 c -32.43,-37.59 -30.05,-47.79 -71.42,-83.69 -31.19,-27.06 -50.05,-44.18 -95.69,-62.96 -73.42,-30.21 -183.38,-16.85 -237.38,31.48 -79.56,71.21 119.07,153.89 277.75,143.21 23.23,-1.56 46.05,-4.31 68.4,-7.89 22.67,-3.64 42.67,-4.67 58.34,-20.15 z"
         id="path196"
         inkscape:connector-curvature="0"
         style="fill:#fefefe;stroke:#fefefe;stroke-width:50;stroke-miterlimit:22.92560005" /></g><path
       class="fil6"
       d="m 11598.17,13198.27 0,201.17 -216.41,0 0,-201.17 -659.88,0 0,-172.21 643.12,-723.89 233.17,0 0,716.28 169.16,0 0,179.82 -169.16,0 z m -216.41,-664.45 -425.19,484.63 425.19,0 0,-484.63 z"
       id="path198"
       inkscape:connector-curvature="0"
       style="fill:#fefefe;fill-rule:nonzero" /><path
       id="1"
       class="fil6"
       d="m 13143.49,12858.43 c 0,92.45 -16.51,173.73 -49.53,243.83 -33.02,70.11 -78.23,129.03 -135.63,176.79 -57.41,47.75 -124.72,83.81 -201.93,108.2 -77.22,24.38 -160.02,36.57 -248.41,36.57 -88.39,0 -171.19,-12.19 -248.41,-36.57 -77.21,-24.39 -144.52,-60.45 -201.93,-108.2 -57.4,-47.76 -102.61,-106.68 -135.63,-176.79 -33.02,-70.1 -49.53,-151.38 -49.53,-243.83 0,-92.46 16.51,-174.5 49.53,-246.13 33.02,-71.62 78.23,-131.82 135.63,-180.59 57.41,-48.76 124.72,-85.85 201.93,-111.25 77.22,-25.4 160.02,-38.1 248.41,-38.1 88.39,0 171.19,12.7 248.41,38.1 77.21,25.4 144.52,62.49 201.93,111.25 57.4,48.77 102.61,108.97 135.63,180.59 33.02,71.63 49.53,153.67 49.53,246.13 z m -216.41,0 c 0,-64.01 -10.92,-120.65 -32.76,-169.93 -21.85,-49.27 -51.82,-90.67 -89.92,-124.2 -38.1,-33.53 -82.55,-58.93 -133.34,-76.2 -50.8,-17.27 -105.16,-25.91 -163.07,-25.91 -57.91,0 -112.27,8.64 -163.07,25.91 -50.8,17.27 -95.25,42.67 -133.34,76.2 -38.1,33.53 -68.08,74.93 -89.92,124.2 -21.84,49.28 -32.77,105.92 -32.77,169.93 0,64 10.93,119.88 32.77,167.63 21.84,47.76 51.82,87.89 89.92,120.4 38.09,32.51 82.54,56.89 133.34,73.15 50.8,16.26 105.16,24.38 163.07,24.38 57.91,0 112.27,-8.12 163.07,-24.38 50.79,-16.26 95.24,-40.64 133.34,-73.15 38.1,-32.51 68.07,-72.64 89.92,-120.4 21.84,-47.75 32.76,-103.63 32.76,-167.63 z m -420.61,103.63 -105.16,-105.16 105.16,-105.15 105.15,105.15 -105.15,105.16 z"
       inkscape:connector-curvature="0"
       style="fill:#fefefe;fill-rule:nonzero" /><path
       id="2"
       class="fil6"
       d="m 14115.79,13198.27 0,201.17 -216.41,0 0,-201.17 -659.88,0 0,-172.21 643.12,-723.89 233.17,0 0,716.28 169.16,0 0,179.82 -169.16,0 z m -216.41,-664.45 -425.19,484.63 425.19,0 0,-484.63 z"
       inkscape:connector-curvature="0"
       style="fill:#fefefe;fill-rule:nonzero" /><path
       id="3"
       class="fil7 str2"
       d="m 11598.17,13198.27 0,201.17 -216.41,0 0,-201.17 -659.88,0 0,-172.21 643.12,-723.89 233.17,0 0,716.28 169.16,0 0,179.82 -169.16,0 z m -216.41,-664.45 -425.19,484.63 425.19,0 0,-484.63 z"
       inkscape:connector-curvature="0"
       style="fill:none;fill-rule:nonzero;stroke:#fefefe;stroke-width:7.61999989;stroke-miterlimit:22.92560005" /><path
       id="4"
       class="fil7 str2"
       d="m 13143.49,12858.43 c 0,92.45 -16.51,173.73 -49.53,243.83 -33.02,70.11 -78.23,129.03 -135.63,176.79 -57.41,47.75 -124.72,83.81 -201.93,108.2 -77.22,24.38 -160.02,36.57 -248.41,36.57 -88.39,0 -171.19,-12.19 -248.41,-36.57 -77.21,-24.39 -144.52,-60.45 -201.93,-108.2 -57.4,-47.76 -102.61,-106.68 -135.63,-176.79 -33.02,-70.1 -49.53,-151.38 -49.53,-243.83 0,-92.46 16.51,-174.5 49.53,-246.13 33.02,-71.62 78.23,-131.82 135.63,-180.59 57.41,-48.76 124.72,-85.85 201.93,-111.25 77.22,-25.4 160.02,-38.1 248.41,-38.1 88.39,0 171.19,12.7 248.41,38.1 77.21,25.4 144.52,62.49 201.93,111.25 57.4,48.77 102.61,108.97 135.63,180.59 33.02,71.63 49.53,153.67 49.53,246.13 z m -216.41,0 c 0,-64.01 -10.92,-120.65 -32.76,-169.93 -21.85,-49.27 -51.82,-90.67 -89.92,-124.2 -38.1,-33.53 -82.55,-58.93 -133.34,-76.2 -50.8,-17.27 -105.16,-25.91 -163.07,-25.91 -57.91,0 -112.27,8.64 -163.07,25.91 -50.8,17.27 -95.25,42.67 -133.34,76.2 -38.1,33.53 -68.08,74.93 -89.92,124.2 -21.84,49.28 -32.77,105.92 -32.77,169.93 0,64 10.93,119.88 32.77,167.63 21.84,47.76 51.82,87.89 89.92,120.4 38.09,32.51 82.54,56.89 133.34,73.15 50.8,16.26 105.16,24.38 163.07,24.38 57.91,0 112.27,-8.12 163.07,-24.38 50.79,-16.26 95.24,-40.64 133.34,-73.15 38.1,-32.51 68.07,-72.64 89.92,-120.4 21.84,-47.75 32.76,-103.63 32.76,-167.63 z m -420.61,103.63 -105.16,-105.16 105.16,-105.15 105.15,105.15 -105.15,105.16 z"
       inkscape:connector-curvature="0"
       style="fill:none;fill-rule:nonzero;stroke:#fefefe;stroke-width:7.61999989;stroke-miterlimit:22.92560005" /><path
       id="5"
       class="fil7 str2"
       d="m 14115.79,13198.27 0,201.17 -216.41,0 0,-201.17 -659.88,0 0,-172.21 643.12,-723.89 233.17,0 0,716.28 169.16,0 0,179.82 -169.16,0 z m -216.41,-664.45 -425.19,484.63 425.19,0 0,-484.63 z"
       inkscape:connector-curvature="0"
       style="fill:none;fill-rule:nonzero;stroke:#fefefe;stroke-width:7.61999989;stroke-miterlimit:22.92560005" /></g></svg>